<svg width="100" height="100" viewBox="0 0 76 76" style="background-color: #2a2a2a; padding: 5px;">
  <g transform="translate(1, 1)">
    <g fill="#2a2a2a" stroke="#0f0" stroke-width="0.5">
      <rect width="22" height="22" x="0" y="0" rx="3" ry="3" />
      <rect width="22" height="22" x="26" y="0" rx="3" ry="3" />
      <rect width="22" height="22" x="52" y="0" rx="3" ry="3" />
      <rect width="22" height="22" x="0" y="26" rx="3" ry="3" />
      <rect width="22" height="22" x="26" y="26" rx="3" ry="3" />
      <rect width="22" height="22" x="52" y="26" rx="3" ry="3" />
      <rect width="22" height="22" x="0" y="52" rx="3" ry="3" />
      <rect width="22" height="22" x="26" y="52" rx="3" ry="3" />
      <rect width="22" height="22" x="52" y="52" rx="3" ry="3" />
    </g>
    <g fill="white" stroke="red" stroke-width="0.5" stroke-linecap="round" stroke-linejoin="miter">
      <path transform="translate(0, 0)"     d="M 10 5 L 12 5 L 12 10 L 17 10 L 17 12 L 12 12 L 12 17 L 10 17 L 10 12 L 5 12 L 5 10 L 10 10 Z"  />
      <path transform="translate(26, 0)"    d="M 11 6 L 17 14 L 5 14 Z"   />
      <path transform="translate(52, 0)"    d="M 5 12 L 17 12 L 17 10 L 5 10 Z"     />    
      <path transform="translate(0, 26)"    d="M 6 12 L 14 6 L 14 18 Z"  />
      <path transform="translate(26, 26)"   d="M 11 18 L 17 10 L 5 10 Z"    />
      <path transform="translate(52, 26)"   d="M 16 12 L 8 6 L 8 18 Z"  />    
      <path transform="translate(0, 52)"    d="M11,1 L5,6 L11,11 L11,8 A4,4 0 1,1 7,12 L3,12 A8,8 0 1,0 11,4 Z"  />
      <path transform="translate(26, 52)"   d="M 6 6 L 17 6 L 17 17 L 6 17 Z"   />
      <path transform="translate(52, 52)"   d="M11,1 L17,6 L11,11 L11,8 A4,4 0 1,0 15,12 L19,12 A8,8 0 1,1 11,4 Z"   />
    </g>
  </g>
</svg>


