<?xml version="1.0"?>
<svg xmlns="http://www.w3.org/2000/svg" version="1.2" baseProfile="tiny" width="800" height="401" viewBox="0 0 800 401" stroke-linecap="round" stroke-linejoin="round">
<g id="ne_110m_coastline" fill="none" stroke="black" stroke-width="1">
<path d="M 37.1 374.72 38.45 373.9 42.57 374.24 44.79 374.94 46.48 375.72 47.09 376.72 42.83 377.02 39.93 376.24 38.62 375.46 38.54 375.33 37.1 374.72"/>
<path d="M 386.26 81.09 386.63 82.68 384.95 84.66 381.02 85.97 377.88 85.63 379.68 83.32 378.52 81.06 381.54 79.33 383.22 78.29 385.07 78.2 387.45 79.57 386.26 81.09"/>
<path d="M 712.55 206.26 716.4 207.79 720.49 209.06 722.02 210.2 723.26 211.31 723.59 212.62 727.29 213.99 727.83 215.16 725.79 215.4 726.28 216.88 728.25 218.33 729.69 220.68 730.96 220.61 730.87 221.59 732.59 221.97 731.92 222.39 734.28 223.32 734.03 223.96 732.56 224.11 732.02 223.54 730.11 223.29 727.87 222.96 726.15 221.54 724.89 220.32 723.74 218.38 720.85 217.41 718.97 218.05 717.62 218.78 717.9 220.41 716.16 221.17 714.92 220.8 712.63 220.71 710.65 218.89 708.4 218.45 707.85 219.08 705.05 219.15 705.99 217.34 707.38 216.73 706.8 214.32 705.74 212.46 701.44 210.58 699.61 210.39 696.29 208.34 695.63 209.42 694.78 209.62 694.28 208.8 694.27 207.84 692.58 206.75 694.96 205.95 696.55 206 696.36 205.41 693.12 205.4 692.24 204.08 690.26 203.68 689.32 202.58 692.31 202.04 693.44 201.32 697 202.23 697.35 203.05 697.97 206.64 700.26 207.97 702.12 205.61 704.66 204.28 706.63 204.27 708.53 205.05 710.17 205.84 712.55 206.26"/>
<path d="M 653.15 190.47 654.03 189.64 655.92 188.42 657.62 186.88 658.74 185.15 659.64 185.14 660.78 186.26 660.88 187.23 662.34 187.85 664.19 188.51 664.03 189.38 662.54 189.49 662.94 190.57 661.31 191.33 660.04 193.33 661.67 195.43 661.29 196.45 663.78 198.5 661.15 198.76 660.41 200.27 660.51 202.28 658.37 203.8 658.32 206.01 657.46 209.39 657.14 208.61 654.62 209.6 653.74 208.25 652.16 208.12 651.05 207.41 648.42 208.21 647.61 207.14 646.16 207.26 644.33 207 643.99 204.03 642.88 203.41 641.82 201.52 641.51 199.58 641.77 197.53 643.09 196.05 644.71 196.81 646.42 196.4 646.87 194.52 647.82 194.1 650.47 193.62 652.06 191.87 653.15 190.47"/>
<path d="M 192.49 34.29 191.29 35.15 188.07 34.99 185.38 34.41 186.56 33.41 189.75 32.82 191.68 33.59 192.49 34.29"/>
<path d="M 191.99 28.66 190.98 28.73 186.82 28.59 186.23 27.97 190.7 28 192.25 28.41 191.99 28.66"/>
<path d="M 185.53 25.9 188.18 26.67 187.58 27.47 184.3 27.93 182.49 27.42 181.54 26.58 181.37 25.67 184.24 25.76 185.53 25.9"/>
<path d="M 204.6 35.6 201.02 35.32 195.13 34.61 194.36 33.39 194.09 32.29 191.87 31.33 187.28 31.05 184.71 30.37 185.55 29.46 190.12 29.6 192.58 30.31 196.94 30.31 198.86 31.04 198.35 31.87 200.89 32.37 202.3 32.9 205.29 32.99 208.53 33.18 212.05 32.7 216.56 32.51 220.17 32.67 222.54 33.5 223.03 34.42 221.65 35.01 218.35 35.49 215.51 35.22 209.15 35.56 204.6 35.6"/>
<path d="M 153.36 27.26 156.49 27.61 155.75 28.27 151.62 28.91 148.33 28.19 150.13 27.49 153.36 27.26"/>
<path d="M 154.03 25.82 156.91 26.27 154.21 26.7 150.53 26.7 150.57 26.38 152.84 25.72 154.03 25.82"/>
<path d="M 253.07 159.46 254.21 159.65 254.61 160.09 254.04 160.65 252.37 160.64 251.08 160.72 250.95 159.77 251.26 159.45 253.07 159.46"/>
<path d="M 228.05 159.51 229.55 159.71 230.72 160.24 231.09 160.85 229.53 160.89 228.86 161.26 227.62 160.91 226.35 160.1 226.62 159.59 227.55 159.44 228.05 159.51"/>
<path d="M 217.64 149.1 219.55 149.26 221.3 149.28 223.38 150.04 224.26 150.85 226.33 150.6 227.11 151.12 228.99 152.49 230.37 153.49 231.1 153.46 232.42 153.91 232.26 154.54 233.9 154.63 235.57 155.54 235.31 156.05 233.84 156.34 232.34 156.45 230.82 156.27 227.64 156.49 229.13 155.25 228.22 154.67 226.8 154.53 226.03 153.89 225.5 152.62 224.25 152.71 222.18 152.12 221.52 151.65 218.63 151.31 217.86 150.88 218.69 150.32 216.51 150.21 214.92 151.36 214 151.39 213.68 151.93 212.59 152.17 211.64 151.96 212.81 151.28 213.29 150.48 214.29 149.99 215.42 149.55 217.1 149.34 217.64 149.1"/>
<path d="M 276.75 86.75 275.57 88.14 274.1 90.08 275.55 89.33 277.04 89.81 276.26 90.58 278.23 91.19 279.25 90.65 281.46 91.33 280.77 92.95 282.33 92.58 282.61 93.75 283.3 95.13 282.36 97.08 281.36 97.16 279.9 96.74 280.38 94.93 279.77 94.65 277.19 96.57 275.87 96.49 277.44 95.45 275.31 94.91 272.93 95.05 268.63 94.98 268.29 94.32 269.67 93.54 268.7 92.94 270.56 91.6 272.85 88.07 274.23 86.81 276.15 86.05 277.18 86.15 276.75 86.75"/>
<path d="M 214.06 56.17 216.49 56.93 219.03 57.62 219.22 58.68 220.85 58.51 222.44 59.24 220.47 59.94 217.02 59.41 215.78 58.41 213.58 59.59 210.42 60.73 209.66 59.44 206.66 59.65 208.58 58.55 208.87 56.81 209.62 54.78 211.23 54.96 211.64 55.93 212.77 55.59 214.06 56.17"/>
<path d="M 225.39 40.12 227.49 39.24 232.41 40.36 235.46 41.42 235.75 42.38 239.86 41.88 242.17 43.29 247.52 44.17 249.46 45.06 251.55 47.14 247.48 48.17 252.7 49.62 256.22 50.1 259.41 52.14 262.89 52.29 262.2 53.84 258.31 56.42 255.59 55.47 252.1 53.34 249.23 53.62 248.95 54.89 251.28 56.18 254.29 57.2 255.21 57.78 256.65 59.98 255.89 61.57 253.09 60.97 247.53 59.2 250.66 61.11 252.97 62.45 253.33 63.22 247.32 62.33 242.56 61.05 239.88 59.97 240.65 59.34 237.34 58.2 234.12 57.13 234.15 57.77 227.74 58.12 225.87 57.36 227.33 55.73 231.49 55.69 236.06 55.41 235.32 54.62 236.09 53.51 238.96 51.35 238.35 50.37 237.49 49.61 234.1 48.54 229.61 47.78 231.03 47.22 228.68 45.84 226.73 45.72 224.98 44.96 223.79 45.62 219.77 45.9 211.71 45.41 207.02 44.76 203.42 44.42 201.58 43.64 203.9 42.63 200.75 42.62 200.05 40.38 201.75 38.4 204.03 37.49 209.75 36.9 208.12 38.33 209.87 39.72 211.92 37.93 217.53 37.02 221.34 39.31 221.01 40.76 225.39 40.12"/>
<path d="M 190.52 36.17 195.14 36.24 199.37 36.78 196.06 38.76 193.41 39.19 191.04 40.85 188.51 40.76 187.13 38.82 187.16 37.71 188.32 36.77 190.52 36.17"/>
<path d="M 177.36 39.34 174.92 37.89 177.54 36.81 180.19 37.28 184.14 37 184.72 37.64 182.65 38.7 186 39.66 185.6 41.65 181.97 42.51 179.83 42.33 178.3 41.48 172.84 39.83 172.84 39.06 177.36 39.34"/>
<path d="M 161 32.38 162.97 32 165.3 32.1 165.69 33.19 164.34 34.24 156.83 34.58 151.24 35.54 147.87 35.59 147.59 34.87 152.19 33.89 142.17 34.15 139.08 33.76 142.1 31.59 144.19 30.97 150.42 31.72 154.36 33.03 158.23 33.2 155.06 31.08 157.1 30.27 159.38 30.53 160.13 31.59 161 32.38"/>
<path d="M 127.67 31.77 131.43 30.12 135.99 28.68 139.39 28.71 142.43 28.39 142.12 30.09 140.41 30.86 138.34 30.97 134.22 31.92 130.68 32.25 127.67 31.77"/>
<path d="M 130.59 35.47 133.76 35.93 139.42 36.05 141.57 36.7 143.95 37.63 141.16 38.19 135.73 39.75 132.98 41.3 132.98 42.27 127.15 43.33 125.98 42.36 120.86 41.19 121.81 40.25 123.34 38.63 125.27 37.18 123.1 35.82 130.59 35.47"/>
<path d="M 31 66.65 32.76 66.85 32.97 67.7 31.61 68.04 30.15 67.63 28.81 67.03 31 66.65"/>
<path d="M 60.34 72 61.81 72.15 62.75 72.84 60.84 73.89 58.62 74.74 57.49 74.17 57.15 73.13 59.16 72.34 60.34 72"/>
<path d="M 105.83 80.71 107.95 80.53 107.29 83.05 109.22 84.83 108.34 84.83 107 83.82 106.18 82.79 105.06 82.1 104.65 81.13 104.78 80.42 105.83 80.71"/>
<path d="M 122 89.78 123.09 90.83 125.31 91.74 126.22 92.97 125.1 93.28 121.46 92.27 120.8 91.48 118.82 90.71 118.42 90.08 116.14 89.68 115.28 88.47 115.47 87.96 117.8 88.44 119.16 88.78 121.24 89.01 122 89.78"/>
<path d="M 19.33 59.12 20.7 59.54 22.08 59.31 23.87 59.89 26.07 60.19 25.89 60.43 24.21 60.9 22.52 60.42 21.68 60.02 19.72 60.15 19.2 59.95 19.33 59.12"/>
<path d="M 166.16 24.71 170.51 25.02 176.5 25.83 178.2 26.88 179.06 27.8 175.44 27.56 171.79 26.84 166.86 26.76 169 26.1 166.32 25.56 166.16 24.71"/>
<path d="M 473.03 122.06 474.63 122.09 476.64 121.43 475.15 122.37 475.38 122.97 473.11 123.87 472.02 123.58 471.5 122.69 472.71 122.59 473.03 122.06"/>
<path d="M 458.28 122.25 458 122.91 454.81 123.09 454.83 122.73 452.12 122.3 452.53 121.35 453.75 122.1 455.47 121.97 457.12 122.13 457.07 122.52 458.28 122.25"/>
<path d="M 509.82 228.14 510.41 229.08 510.96 230.55 511.32 233.22 511.89 234.25 511.67 235.32 511.28 235.97 510.52 234.67 510.11 235.32 510.53 236.97 510.33 237.91 509.72 238.42 509.58 240.3 508.71 242.88 507.62 245.93 506.25 250.13 505.4 253.22 504.4 255.79 502.59 256.31 500.66 257.25 499.38 256.68 497.62 255.89 497.01 254.72 496.86 252.76 496.08 250.99 495.88 249.39 496.28 247.8 497.3 247.41 497.3 246.67 498.36 244.99 498.56 243.58 498.05 242.53 497.63 241.13 497.45 239.09 498.23 237.85 498.52 236.45 499.63 236.36 500.86 235.91 501.69 235.51 502.66 235.48 503.92 234.22 505.75 232.85 506.41 231.74 506.11 230.79 507.05 231.05 508.27 229.51 508.31 228.18 509.05 227.19 509.82 228.14"/>
<path d="M 770.66 235.73 772.06 237 771.33 237.29 770.58 236.32 770.66 235.73"/>
<path d="M 769.72 235.23 769.41 234.62 769.36 232.92 770.42 233.6 770.78 235.39 770.19 235.11 769.72 235.23"/>
<path d="M 697.5 215.78 697.28 214.12 697.68 213.32 698.14 212.57 698.64 213.22 698.64 214.28 697.5 215.78"/>
<path d="M 292.14 373.5 293.26 373.5 296.56 373.03 299.91 373.5 302.64 374.46 303.6 375.81 303.86 376.76 303.94 377.89 300.51 378.59 296.91 379.15 292.74 379.67 288.1 380.11 282.84 379.98 279.94 379.24 280.33 378.33 285.06 377.72 286.97 376.98 288.36 376.02 289.36 375.2 290.7 374.42 292.14 373.5"/>
<path d="M 253.06 378.4 258.05 378.49 262.83 378.7 264.48 377.79 265.65 377.01 267.95 377.92 267.3 379.05 266.65 380.05 262 379.75 257.05 379.88 254.27 379.14 254.27 379.05 253.06 378.4"/>
<path d="M 236.15 358.48 237.67 358.22 240.23 358.31 240.89 357.18 241.02 356.35 240.97 354.57 242.23 353.53 244.27 353.18 245.44 354.01 245.97 354.83 246.92 355.83 247.66 356.79 248.27 357.79 248.53 358.78 248.14 359.65 247.53 360.48 244.92 360.78 242.45 361.22 239.54 361.17 240.62 360.3 238.02 360.61 235.55 360.91 233.85 360.26 233.72 359.35 236.15 358.48"/>
<path d="M 173.17 359.87 174.56 359.47 177.38 359.78 180.59 359.95 183.02 360.26 185.45 360 186.76 361.26 185.02 361.08 182.33 361.17 179.59 361.08 176.6 361.21 174.34 360.78 173.17 359.87"/>
<path d="M 128.19 363.77 128.67 363.04 131.31 363.43 134.18 363.77 136.83 363.38 135.57 364.17 133.49 364.73 130.4 364.56 128.19 363.77"/>
<path d="M 117.86 363.34 119.46 362.86 121.68 363.38 125.06 364.25 123.76 364.17 120.89 363.95 117.86 363.34"/>
<path d="M 767.48 247.23 769.3 248.6 770.45 249.62 769.61 250.15 768.39 249.55 766.8 248.56 765.37 247.38 763.91 245.82 763.6 245.07 764.55 245.1 765.79 245.85 766.77 246.61 767.48 247.23"/>
<path d="M 738.35 208.61 739.19 209.32 739.46 210.47 738.77 211.07 738.35 209.76 737.83 208.9 736.83 208.17 735.57 207.23 733.97 206.58 734.58 206.04 735.78 206.66 736.53 207.15 737.47 207.68 738.35 208.61"/>
<path d="M 735.38 213.45 734.17 213.99 733.03 214.5 731.86 214.5 730.04 213.86 728.77 213.24 728.96 212.55 730.94 212.88 732.16 212.7 732.49 211.64 732.81 211.59 733.03 212.76 734.29 212.59 734.92 211.84 736.15 211.04 735.91 209.74 737.24 209.7 737.68 210.06 737.64 211.29 736.9 212.64 735.73 212.83 735.38 213.45"/>
<path d="M 759.36 223.74 759.98 224.5 758.44 224.48 757.59 223.12 758.92 223.66 759.36 223.74"/>
<path d="M 758.39 221.78 758.06 222.19 756.41 220.27 755.95 218.94 756.71 218.94 757.5 220.72 758.39 221.78"/>
<path d="M 756.56 222.39 755.69 222.43 754.33 222.21 753.87 221.87 754.01 220.99 755.47 221.34 756.19 221.8 756.56 222.39"/>
<path d="M 753.87 218.28 754.39 218.98 754.48 219.43 752.75 218.49 751.53 217.69 750.7 216.95 751.03 216.73 752.05 217.26 753.87 218.28"/>
<path d="M 748.33 216.06 749.21 216.79 748.77 216.91 747.8 216.41 746.89 215.5 747 215.13 748.33 216.06"/>
<path d="M 743.05 212.34 743.72 212.84 744.8 214.24 745.84 215 745.53 215.62 744.91 215.84 743.95 214.99 742.98 213.58 742.51 211.89 742.81 211.68 743.05 212.34"/>
<path d="M 792.1 289.31 791.26 290.51 790.16 292.03 788.45 292.91 788.07 292.33 787.14 292.01 788.42 290.18 787.7 288.96 785.31 288.08 785.37 287.27 786.97 286.5 787.35 284.79 787.24 283.36 786.35 281.88 786.41 281.49 785.35 280.57 783.6 278.61 782.68 277.04 783.5 276.87 784.71 278.1 786.43 278.67 787.06 280.65 788.66 282.98 788.71 281.47 789.71 282.07 790.04 283.75 791.83 284.47 793.32 284.65 794.59 283.8 795.71 284.06 795.18 286.03 794.5 287.32 792.81 287.27 792.22 287.95 792.42 288.9 792.1 289.31"/>
<path d="M 776.1 297.05 778 295.89 779.33 294.74 780.31 293.08 781.15 292.52 781.48 291.29 783.04 290.26 783.53 291.2 784.03 292.12 785.61 291.22 786.25 292.16 786.25 293.09 785.43 294.12 783.98 295.75 782.84 296.64 783.66 297.71 781.95 297.74 780.05 298.57 779.46 300.02 778.2 302.26 776.46 303.26 775.35 303.89 773.31 303.84 771.88 303.11 769.47 302.95 769.1 302.14 770.29 300.5 773.07 298.31 774.5 297.89 776.1 297.05"/>
<path d="M 727.38 290.96 728.71 291.11 728.86 293.74 728.11 294.5 727.88 296.29 727.1 295.68 725.56 297.22 725.1 297.1 723.74 297.04 722.37 295.14 722.07 293.67 720.79 291.74 720.85 290.73 722.3 290.92 724.44 291.69 725.65 291.38 727.38 290.96"/>
<path d="M 679.63 271.91 677.28 273.05 675.36 273.56 674.93 274.72 674.11 275.62 672.23 275.68 670.84 275.87 668.88 275.47 667.29 275.71 665.76 275.81 664.45 277 663.8 276.9 662.69 277.52 661.62 278.23 660.01 278.14 658.52 278.14 656.17 276.72 654.98 276.3 655.02 275.03 656.13 274.73 656.5 274.23 656.42 273.43 656.69 271.89 656.45 270.57 655.27 268.33 654.91 267.07 655.01 265.81 654.12 264.36 654.07 263.71 653.08 262.83 652.81 261.09 651.54 259.34 651.23 258.39 652.21 259.35 651.46 257.29 652.56 257.94 653.22 258.79 653.18 257.66 652.08 255.91 651.87 255.22 651.36 254.55 651.6 253.27 652.05 252.73 652.35 251.62 652.12 250.32 653.03 248.73 653.2 250.41 654.14 248.89 655.94 248.15 657.02 247.2 658.71 246.39 659.72 246.22 660.33 246.49 662.08 245.66 663.42 245.42 663.76 244.93 664.34 244.73 665.57 244.78 667.9 244.13 669.1 243.15 669.67 241.96 670.97 240.84 671.07 239.95 671.13 238.75 672.68 236.86 673.61 238.78 674.55 238.34 673.77 237.29 674.46 236.21 675.44 236.69 675.71 235.01 676.92 233.92 677.45 233.04 678.57 232.66 678.6 232.04 679.58 232.3 679.62 231.75 680.59 231.43 681.66 231.13 683.3 232.15 684.53 233.46 685.92 233.48 687.33 233.68 686.86 232.47 687.92 230.69 688.92 230.11 688.57 229.56 689.54 228.29 690.88 227.51 692.01 227.77 693.88 227.35 693.84 226.22 692.21 225.49 693.39 225.17 694.86 225.72 696.04 226.63 697.9 227.19 698.54 226.97 699.91 227.65 701.21 227.02 702.04 227.21 702.56 226.78 703.58 227.88 702.99 229.07 702.14 229.96 701.38 230.04 701.64 230.92 700.99 232.03 700.2 233.12 700.36 233.74 702.12 234.97 703.83 235.68 704.97 236.44 706.57 237.76 707.2 237.75 708.36 238.32 708.69 239.01 710.81 239.76 712.27 239 712.71 237.81 713.16 236.83 713.43 235.61 714.11 233.85 713.8 232.78 713.96 232.13 713.7 230.86 713.99 229.19 714.42 228.74 714.07 228 714.61 226.83 715.03 225.61 715.09 224.98 715.91 224.15 716.53 225.23 716.69 226.62 717.24 226.89 717.33 227.82 718.14 228.95 718.31 230.2 718.23 231.01 719.03 232.75 720.45 231.91 721.18 232.85 722.25 233.72 722.02 234.7 722.49 236.6 722.83 237.71 723.39 237.98 723.99 239.87 723.77 241.02 724.49 242.52 726.89 243.68 728.46 244.74 729.95 245.7 729.66 246.24 730.92 247.63 731.79 250.03 732.67 249.54 733.57 250.5 734.11 250.16 734.49 252.51 736.07 253.87 737.1 254.71 738.83 256.51 739.45 258.29 739.51 259.55 739.36 260.93 740.41 262.81 740.29 264.77 739.9 265.8 739.3 267.78 739.35 269.05 738.91 270.64 737.93 272.65 736.29 273.74 735.48 275.46 734.74 276.55 734.08 278.47 733.23 279.57 732.67 281.23 732.38 282.76 732.49 283.46 731.22 284.23 728.74 284.31 726.7 285.22 725.68 286.08 724.34 287.03 722.5 286.05 721.14 285.66 721.49 284.5 720.28 284.92 718.34 286.53 716.42 285.93 715.16 285.58 713.89 285.42 711.75 284.78 710.32 283.41 709.9 281.73 709.39 280.61 708.3 279.71 706.17 279.44 706.9 278.37 706.36 276.72 705.28 278.25 703.31 278.66 704.46 277.43 704.8 276.16 705.66 275.07 705.48 273.43 703.68 275.32 702.29 276.08 701.44 277.84 699.71 276.93 699.78 275.75 698.39 274.14 697.22 273.31 697.64 272.8 694.8 271.46 693.24 271.39 691.11 270.32 687.14 270.53 684.27 271.32 681.74 272.06 679.63 271.91"/>
<path d="M 581.3 183.82 580.96 186.13 580.03 186.76 578.11 187.27 577.05 185.51 576.66 182.32 577.66 178.72 579.19 179.95 580.22 181.52 581.3 183.82"/>
<path d="M 686.77 206.71 689.21 207.36 690.02 209.05 688.15 208.14 686.29 207.95 685.04 208.1 683.51 208.02 684.03 206.8 686.77 206.71"/>
<path d="M 681.24 208.9 679.71 208.5 679.28 207.54 681.52 207.44 682.07 208.17 681.24 208.9"/>
<path d="M 683.58 195.68 683.74 196.89 685.05 197.08 685.26 197.99 685.14 199.93 684 199.71 683.66 201.06 684.58 202.23 683.96 202.49 683.06 201.09 682.4 198.26 682.85 196.49 683.58 195.68"/>
<path d="M 672.49 198.56 675.04 198.47 677.23 196.86 677.62 197.35 675.84 199.55 674.17 199.98 672.04 199.54 668.34 199.65 666.41 199.97 666.09 201.65 668.07 203.62 669.27 202.62 673.4 201.86 673.22 202.89 672.26 202.56 671.29 203.86 669.34 204.72 671.44 207.56 671.04 208.32 673.03 210.88 673.01 212.34 671.83 212.99 670.96 212.21 672.03 210.4 669.85 211.25 669.3 210.64 669.59 209.78 667.99 208.48 668.16 206.32 666.68 207 666.86 209.58 666.95 212.75 665.55 213.08 664.6 212.43 665.23 210.39 664.89 208.25 663.96 208.23 663.27 206.71 664.18 205.26 664.5 203.5 665.61 200.16 666.08 199.24 667.96 197.6 669.69 198.25 672.49 198.56"/>
<path d="M 666.65 223.24 663.71 221.69 665.78 221.25 666.94 221.93 667.72 222.6 667.59 223.2 666.65 223.24"/>
<path d="M 668.97 219.42 670.45 219.25 672.44 218.44 672.11 219.67 668.78 220.3 665.83 220.03 665.82 219.22 667.59 218.76 668.97 219.42"/>
<path d="M 662.14 219.04 663.51 218.86 664.06 219.8 661.5 220.24 659.97 220.54 658.77 220.52 659.54 219.25 660.75 219.23 661.35 218.45 662.14 219.04"/>
<path d="M 640.48 214.74 640.78 215.52 645.03 215.74 645.52 214.83 649.63 215.9 650.44 217.33 653.76 217.74 656.48 219.06 653.95 219.9 651.51 219.01 649.51 219.07 647.21 218.9 645.13 218.51 642.56 217.66 640.94 217.44 640.02 217.72 635.97 216.8 635.59 215.85 633.56 215.69 635.08 213.57 637.77 213.7 639.56 214.57 640.48 214.74"/>
<path d="M 631.35 202.9 631.73 204.45 632.5 205.69 634.13 205.88 635.21 207.29 634.65 210.04 634.56 213.47 632.11 213.52 630.24 211.67 627.4 209.85 626.45 208.51 624.77 206.71 623.67 205.04 621.98 201.94 620.03 200.09 619.38 198.19 618.57 196.46 616.57 195.06 615.41 193.17 613.74 191.92 611.43 189.48 611.23 188.35 612.66 188.44 616.09 188.87 618.05 191.04 619.77 192.54 620.99 193.46 623.09 195.85 625.34 195.88 627.2 197.4 628.49 199.26 630.18 200.27 629.29 202.08 630.56 202.85 631.35 202.9"/>
<path d="M 667.85 172.34 666.72 170.65 668.62 170.73 669.39 171.53 668.8 173.44 667.85 172.34"/>
<path d="M 671.73 178.38 672.29 177.75 672.53 176.38 673.76 176.25 673.4 177.74 675.04 175.6 674.83 177.72 674.03 178.44 673.34 179.84 672.64 180.5 671.28 178.97 671.73 178.38"/>
<path d="M 680.14 181.85 680.36 183.32 680.49 184.56 679.74 186.59 678.93 184.33 677.89 185.46 678.6 187.09 677.96 188.13 675.35 186.84 674.73 185.24 675.41 184.18 674 183.14 673.31 184.05 672.26 183.97 670.62 185.21 670.26 184.56 671.13 182.69 672.52 182.07 673.73 181.23 674.51 182.23 676.2 181.63 676.56 180.64 678.13 180.58 678 178.86 679.79 179.92 679.98 181.03 680.14 181.85"/>
<path d="M 642.67 160.16 640.85 159.47 640.79 157.57 641.88 156.56 644.3 155.94 645.58 155.99 646.07 156.84 645.1 157.82 644.59 159.1 642.67 160.16"/>
<path d="M 669.94 146.43 668.61 149.98 667.66 151.8 666.49 149.93 666.24 148.28 667.54 146.11 669.31 144.43 670.33 145.09 669.94 146.43"/>
<path d="M 714.51 113.65 712.46 115.88 712.5 118.17 711.66 119.94 712.05 121.05 710.89 122.61 708.06 123.65 704.17 123.79 701.01 126.32 699.52 125.47 699.43 123.81 695.57 124.3 692.95 125.34 690.35 125.39 692.6 127.02 691.12 130.79 689.69 131.72 688.62 130.86 689.16 128.86 687.76 128.21 686.86 126.69 688.95 126.01 690.11 124.62 692.34 123.47 693.97 121.96 698.38 121.29 700.75 121.75 703.07 117.81 704.55 118.87 707.8 116.65 709.06 115.79 710.45 113.08 710.07 110.58 711.01 109.18 713.37 108.78 714.58 111.85 714.51 113.65"/>
<path d="M 720.56 103.05 722.13 102.11 722.62 104.6 719.33 105.21 717.39 107.41 713.91 105.9 712.7 108.32 710.23 108.35 709.93 106.15 711.03 104.44 713.39 104.32 714.04 101.26 714.69 99.53 717.3 101.84 719 102.58 720.56 103.05"/>
<path d="M 419.31 109.84 420.42 109.15 421.75 110.72 421.43 113.66 420.43 113.52 419.52 114.26 418.68 113.67 418.59 110.99 418.09 109.73 419.31 109.84"/>
<path d="M 419.39 106.01 420.81 105.16 421.19 107.06 420.46 108.77 419.45 108.32 418.94 106.83 419.39 106.01"/>
<path d="M 427.42 76.12 428.13 77.23 426.8 79.03 424.48 77.77 424.17 76.85 427.42 76.12"/>
<path d="M 390.66 70.71 393.34 70.53 390.97 72.92 393.23 72.62 395.66 72.63 395.08 74.44 393.09 76.42 395.38 76.57 397.53 79.41 399.05 79.77 400.41 82.3 401.04 83.17 403.73 83.59 403.46 85.01 402.33 85.66 403.21 86.81 401.22 87.97 398.25 87.95 394.48 88.56 393.45 88.12 391.98 89.16 389.93 88.91 388.37 89.76 387.2 89.31 390.45 86.98 392.43 86.51 388.95 86.13 388.32 85.25 390.64 84.57 389.43 83.37 389.85 81.92 393.15 82.12 393.47 80.83 391.95 79.44 389.26 79.05 388.73 78.45 389.54 77.46 388.81 76.85 387.62 77.89 387.49 75.76 386.37 74.63 387.17 72.33 388.89 70.54 390.66 70.71"/>
<path d="M 367.84 53.19 367.33 54.62 369.83 56.14 366.95 57.83 360.56 59.35 358.65 59.75 355.73 59.42 349.54 58.72 351.72 57.74 346.9 56.66 350.82 56.23 350.73 55.58 346.08 55.06 347.57 53.62 350.93 53.29 354.39 54.79 357.76 53.59 360.55 54.21 364.16 53.03 367.84 53.19"/>
<path d="M 716.79 81.45 717.56 83.59 717.5 85.77 718.42 88.01 720.65 91.94 717.37 91.2 716.01 94.41 718.17 96.68 718.1 98.23 716.42 96.89 714.97 98.61 714.56 96.75 714.81 94.59 714.55 92.2 715.07 90.52 715.17 87.56 713.87 85.38 714.06 82.35 716.11 81.33 715.23 80.3 716.22 79.99 716.79 81.45"/>
<path d="M 662.69 179.85 659.74 181.95 660.82 180.4 662.42 179.03 663.76 177.5 664.92 175.3 665.31 177.1 663.85 178.33 662.69 179.85"/>
<path d="M 671.18 160.1 670.82 161.02 671.58 162.61 670.99 164.45 669.69 165.19 669.34 166.97 669.83 168.74 671.01 168.98 671.99 168.72 674.76 169.95 674.55 171.16 675.27 171.69 675.04 172.71 673.31 171.62 672.49 170.46 671.92 171.27 670.51 169.94 668.5 170.27 667.39 169.78 667.51 168.87 668.2 168.3 667.54 167.79 667.25 168.59 666.16 167.31 665.82 166.35 665.74 164.23 666.63 164.96 666.86 161.49 667.59 159.48 668.93 159.48 670.3 160.12 670.98 159.54 671.18 160.1"/>
<path d="M 670.52 175.19 670.18 174.14 671.51 174.83 672.92 174.82 672.87 175.75 671.85 176.69 670.44 177.36 670.36 176.33 670.52 175.19"/>
<path d="M 678.2 173.54 678.82 176.01 677.11 175.43 677.16 176.17 677.7 177.54 676.64 178.03 676.55 176.48 675.88 176.36 675.54 175.02 676.84 175.2 676.81 174.36 675.46 172.66 677.59 172.71 678.2 173.54"/>
<path d="M 228.53 181.28 229.68 181.35 231.34 179.8 232.25 179.57 232.28 178.83 232.69 176.96 233.96 175.93 235.35 175.89 235.53 175.43 237.26 175.61 239.01 174.49 239.87 174 240.95 172.93 241.73 173.07 242.31 173.65 241.88 174.4 241.82 174.92 240.52 175.18 241.24 176.18 241.21 177.34 240.24 178.63 241.07 180.39 242.03 180.25 242.53 178.64 241.84 177.86 241.73 176.19 244.49 175.28 244.18 174.24 244.96 173.54 245.75 175.1 247.31 175.13 248.75 176.37 248.84 177.1 250.83 177.12 253.19 176.9 254.46 177.89 256.16 178.16 257.4 177.47 257.43 176.91 260.17 176.78 262.83 176.75 260.95 177.4 261.71 178.45 263.48 178.61 265.16 179.7 265.51 181.48 266.67 181.43 267.54 181.95 268.99 182.77 270.36 184.21 270.43 185.35 271.26 185.41 272.45 186.49 273.32 187.26 275.98 187.7 276.22 187.3 278.01 187.14 280.39 187.74 281.15 187.98 282.78 188.51 285.12 190.38 285.49 191.29 286.29 191.37 286.8 192.41 288.04 196.28 289.22 196.65 289.28 198.18 287.62 200.01 288.31 200.67 292.22 201.02 292.3 203.24 293.99 201.79 296.78 202.59 300.46 203.94 301.54 205.24 301.18 206.47 303.76 205.78 308.07 206.95 311.38 206.87 314.66 208.7 317.49 211.19 319.2 211.83 321.09 211.91 321.89 212.61 322.65 215.44 323.02 216.78 322.13 220.44 321 221.89 317.88 224.97 316.47 227.48 314.83 229.4 314.27 229.44 313.65 231.08 313.81 235.23 313.19 238.65 312.96 240.11 312.26 240.98 311.86 243.94 309.62 246.84 309.24 249.13 307.44 250.09 306.93 251.42 304.52 251.41 301.03 252.26 299.47 253.25 296.99 253.9 294.38 255.66 292.5 257.86 292.18 259.52 292.55 260.74 292.13 262.98 291.63 264.06 290.08 265.28 287.62 269.18 285.67 270.94 284.17 271.98 283.15 274.09 281.69 275.35 280.73 276.75 278.23 277.98 276.59 277.54 275.39 277.77 273.34 276.82 271.84 276.89 270.49 275.67 270.34 276.82 273.15 278.72 272.85 280.25 274.23 281.22 274.12 282.3 271.99 285.14 268.7 286.33 264.26 286.79 261.82 286.57 262.29 287.89 261.83 289.55 262.24 290.67 260.91 291.45 258.64 291.75 256.51 290.95 255.66 291.53 255.96 293.73 257.46 294.4 258.67 293.7 259.33 294.85 257.29 295.54 255.51 296.91 255.19 299.14 254.66 300.33 252.57 300.34 250.83 301.47 250.2 303.14 252.38 304.76 254.5 305.21 253.73 307.2 251.11 308.45 249.67 311.04 247.65 311.92 246.74 312.96 247.46 315.26 248.93 316.54 248 316.43 246.03 316.41 244.96 316.96 242.96 317.76 242.6 319.83 241.66 319.88 239.16 319.16 236.63 317.62 233.87 316.35"/>
<path d="M 227.36 184.49 228.26 185.67 228.61 187.54 228.13 188.12 228.63 190.15 228.22 191.44 229.03 191.97 228.19 193.13 227.25 194.52 226.15 194.67 225.63 195.47 225.73 196.58 224.9 196.75 225.2 197.44 223.68 198.32 222.47 198.8 222.62 199.7 221.78 201.13 221.37 202.51 220.6 202.84 220.97 204.86 220.52 205.48 221.85 206.45 222.7 205.42 223.18 206.39 222 208.05 220.23 209.45 219.54 211 220.61 213.11 219.9 214.1 221.48 215 223.2 216.45 223.89 218.08 224.8 219.09 226.9 223.5 229.08 227.59 230.96 230.5 230.59 231.14 231.51 232.97 233.22 234.34 237.2 236.76 241.59 238.99 241.78 239.9 244.01 241.17 244.47 244.29 244.63 247.92 243.94 252.88 243.23 257.48 242.83 261.77 241.53 264.48 241.8 267.21 241.13 269.04 241.64 272.36 240.71 275.67 239.17 279.21 237.81 282.79 236.88 282.86 237.06 285.36 237.7 287.52 236.68 289.04 235.93 293.15 235.23 296.32 236.63 296.63 237.32 293.86 238.81 294.45 237.65 299.04 235.19 298.26 234.43 301.94 232.32 303.9 235.69 304.55 233.34 306.26 232.4 308.39 232.69 312.17 233.8 313.65 233.17 314.95 233.87 316.35"/>
<path d="M 234.5 317.62 236.33 318.09 239.44 319.57 242.38 320.36 243.52 319.35 244.24 317.83 246.28 316.92 247.86 317.18 248.71 318.21 249.82 319.87 252.7 321.2 255.81 321.75 254.81 322.86 252.7 322.97 251.57 322.19 250.84 323.08 248.94 323.77 247.85 323.7 246.54 323.52 244.93 322.86 242.6 322.54 239.82 321.3 237.55 320.11 234.5 317.62"/>
<path d="M 499.41 21.86 503.74 21.46 507.11 21.43 507.56 22.03 508.83 21.5 510.92 21.13 514.21 21.62 513.35 21.95 510.38 22.25 508.38 22.41 508.07 22.78 505.48 23.14 503.08 22.62 504.34 21.93 499.41 21.86"/>
<path d="M 518.61 37.02 523.92 35.08 523.32 34.07 528.28 32.9 535.59 31.47 542.97 31.06 546.77 30.24 551.08 29.95 552.62 30.83 551.13 31.52 543.28 32.61 536.51 33.67 529.62 35.78 526.32 37.95 522.85 40.08 523.3 41.92 527.54 43.74 526.23 43.93 518.98 43.64 518.4 42.66 514.38 42.06 514.06 40.87 516.33 40.39 516.25 39.18 520.65 37.29 518.61 37.02"/>
<path d="M 460.75 23.04 457.47 24.24 451.04 24.5 444.5 24.13 444.11 23.52 440.92 23.48 438.5 22.46 445.34 21.84 448.56 22.37 450.8 21.71 456.41 22.26 460.75 23.04"/>
<path d="M 454.81 27.92 449.85 28.83 445.94 28.32 447.47 27.74 446.13 27.04 450.73 26.59 451.61 27.42 454.81 27.92"/>
<path d="M 433.57 23.89 434.41 23.13 437.66 23.05 440.46 23.83 447.76 25.48 442.18 26.35 440.95 27.98 439 28.4 437.95 30.24 435.27 30.33 430.51 28.97 432.52 28.19 429.19 27.54 424.88 25.67 423.15 23.94 429.2 23.14 430.41 23.92 433.57 23.89"/>
<path d="M 227.36 184.49 226.62 183.85 226.15 182.65 226.7 182.06 226.13 181.91 225.72 181.17 224.62 180.56 223.65 180.7 223.2 181.47 222.3 182.03 221.82 182.11 221.6 182.57 222.66 183.77 222.05 184.05 221.73 184.38 220.7 184.49 220.32 183.17 220.03 183.55 219.3 183.42 218.85 182.53 217.94 182.38 217.37 182.12 216.89 182.12 216.42 182.12 216.35 182.6 216.09 182.27 214.89 181.78 214.44 181.31 214.69 180.93 214.61 180.44 214 179.91 213.13 179.47 212.36 179.19 212.22 178.54 211.64 178.14 211.78 178.79 211.34 179.32 210.83 178.7 210.12 178.48 209.82 178.03 209.83 177.36 210.12 176.66 209.81 176.51 209.5 176.35 210 175.92 209.24 175.22 208.2 174.33 207.71 173.58 206.78 172.88 205.67 171.88 205.91 171.54 206.28 171.87 206.45 171.72 206.07 171.02 205.73 170.93 205.39 170.83 205.15 171.35 203.86 171.32 203.06 171.11 202.15 170.67 200.92 170.53 200.29 170.05 199.15 169.67 197.77 169.63 196.75 169.19 195.56 168.27 193.05 165.89 191.91 165.17 190.1 164.59 188.86 164.75 187.08 165.58 185.96 165.8 184.4 165.22 182.74 164.8 180.67 163.78 179 163.47 176.49 162.44 174.64 161.38 174.08 160.79 172.84 160.65 170.57 159.95 169.65 158.94 167.27 157.68 166.16 156.28 165.63 155.2 166.37 154.99 166.14 154.36 166.65 153.78 166.66 153.01 165.91 152.02 165.71 151.14 164.97 150.02 163.02 147.81 160.79 146.08 159.71 144.7 157.81 143.8 157.4 143.25 157.74 141.88 156.61 141.37 155.3 140.29 154.75 138.74 153.55 138.56 152.27 137.4 151.23 136.32 151.13 135.63 149.94 133.95 149.15 132.26 149.19 131.4 147.58 130.53 146.84 130.62 145.58 130.01 145.22 130.91 145.59 131.97 145.81 133.64 146.57 134.55 148.21 136.08 148.58 136.6 148.91 136.76 149.21 137.52 149.6 137.49 150.05 138.92 150.72 139.48 151.19 140.27 152.58 141.4 153.32 143.46 153.98 144.43 154.59 145.47 154.71 146.64 155.78 146.71 156.67 147.72 157.48 148.71 157.42 149.11 156.49 149.92 156.1 149.91 155.51 148.56 154.06 147.3 152.46 146.23 151.33 145.66 151.4 144.04 151.07 142.84 150.01 142.15 148.49 141.16 148.19 141.45 147.63 140.87 146.27 140.34 144.96 139.05 145.12 138.88 146.04 139.01 146.86 138.18 146.94 137.18 145.23 135.6 143.93 134.98 143.12 133.6 142.29 132.15 141.27 130.37 140.37 128.38 139.99 127.25 138.56 125.97 137.52 125.71 137.28 125.07 136.04 124.96 135.24 124.36 133.18 124.14 132.62 123.78 132.35 122.57 130.2 120.34 128.35 117.26 128.43 116.75 127.45 116.01 125.74 114.16 125.43 112.35 124.25 111.14 124.74 109.3 124.66 107.4 123.95 105.7 124.82 103.61 125.09 101.6 125.36 99.59 124.96 96.62 124.26 94.72 123.61 93.69 123.88 93.26 127.08 94.01 128.26 96.1 128.81 95.52 128.46 93.7 127.7 91.88 127.41 91.88 123.12 89.7 121.53 88.74 117.52 87.83 116.28 85.86 116.6 84.5 113.76 83.56 113.37 81.77 110.69 80.16 110.64 79.02 109.43 78.19 107.47 77.48 106.85 75.55 103.99 73.75 102.79 71.66 100.67 71.52 97.14 71.46 94.54 70.83 89.96 68.52 87.84 68.1 83.96 67.31 80.89 67.5 76.53 66.48 73.9 65.54 71.44 66.01 71.89 67.55 70.67 67.69 68.1 68.15 66.15 68.9 63.7 69.37 63.38 68.07 64.38 65.89 66.73 65.21 66.12 64.65 63.3 65.89 61.78 67.36 58.59 68.94 60.21 70.02 58.12 71.61 55.74 72.54 53.52 73.21 52.97 74.19 49.51 75.34 48.81 76.38 46.21 77.33 44.69 77.16 42.62 77.77 40.37 78.53 38.53 79.27 34.73 79.9 34.38 79.53 36.8 78.5 38.97 77.81 41.33 76.6 44.08 76.35 45.18 75.44 48.25 74.11 48.74 73.67 50.38 72.89 50.76 71.21 51.89 69.9 49.34 70.57 48.62 70.19 47.42 70.99 45.97 69.87 45.37 70.66 44.55 69.56 42.33 70.45 40.97 70.44 40.78 69.12 41.18 68.31 39.75 67.52 36.87 67.95 35 66.91 33.48 66.38 33.47 65.12 31.76 64.17 32.62 62.9 34.43 61.66 35.22 60.53 37.01 60.36 38.53 60.72 40.32 59.65 41.93 59.84 43.62 59.15 43.21 58.14 41.97 57.74 43.61 56.89 42.25 56.91 39.9 57.39 39.22 57.88 37.47 57.39 34.34 57.64 31.09 57.11 30.16 56.22 27.35 54.93 30.47 54 35.41 52.92 37.24 52.92 36.94 54.03 41.61 53.94 39.81 52.57 37.09 51.73 35.51 50.62 33.38 49.67 30.34 48.97 31.58 47.81 35.51 47.74 38.31 46.73 38.84 45.65 41.1 44.59 43.26 44.34 47.46 43.36 49.5 43.51 52.91 42.32 56.27 42.79 57.87 43.79 58.85 43.36 62.6 43.49 62.47 44 65.86 44.38 68.12 44.16 72.79 44.86 77.05 45.07 78.76 45.36 81.71 45 85.07 45.66 87.48 45.97 91.62 46.51 95.11 47.57 97.42 47.78 99.36 46.85 102.05 46.16 105.34 46.43 108.66 45.46 112.29 44.9 113.81 45.82 115.47 45.3 115.96 44.26 117.49 44.5 121.24 46.48 124.19 44.98 124.49 46.66 127.21 46.3 128.05 45.65 130.74 45.78 134.13 46.71 139.31 47.52 142.36 47.9 144.54 47.76 147.53 48.88 144.41 49.98 148.41 50.46 154.4 50.2 156.29 49.81 158.65 51.14 161.06 50.02 158.8 49.08 160.23 48.32 162.93 48.22 164.7 47.99 166.49 48.52 168.72 49.73 171.19 49.55 175.11 50.55 178.55 50.2 181.78 50.25 181.53 48.87 183.5 48.48 186.93 49.24 186.92 51.33 188.33 49.57 190.11 49.63 191.12 47.4 188.74 46.03 186.16 45.13 186.33 42.68 188.95 41.08 191.88 41.43 194.12 42.41 197.13 44.91 195.16 46 199.29 46.45 199.28 48.71 202.24 46.98 204.89 48.4 204.23 50.05 206.37 51.54 208.69 49.94 210.31 48.03 210.43 45.59 213.58 45.76 216.85 46.09 219.83 47.19 219.96 48.29 218.31 49.47 219.88 50.66 219.59 51.74 215.25 53.29 212.17 53.63 209.88 52.96 209.22 54.08 207.08 55.94 206.43 56.91 203.86 58.41 200.69 58.56 198.94 59.5 198.79 60.94 196.21 61.22 193.5 63.01 191.1 65.51 190.24 67.26 190.12 69.83 193.37 70.2 194.37 72.28 195.41 73.96 198.51 73.52 202.63 74.48 204.85 75.32 206.43 76.37 209.21 76.98 211.56 77.91 215.22 78.04 217.63 78.25 217.27 80.17 217.96 82.4 219.56 84.88 222.86 86.99 224.57 86.27 225.77 83.99 224.61 80.49 223.04 79.32 226.59 78.28 229.1 76.73 230.33 75.18 230.15 73.7 228.65 71.82 225.95 70.15 228.57 67.83 227.6 65.82 226.86 62.36 228.41 61.85 232.21 62.45 234.49 62.67 236.32 62.08 238.39 62.83 241.12 64.12 241.79 64.98 245.74 65.15 245.67 67.01 246.41 69.81 248.44 70.16 250.04 71.46 253.25 70.23 255.37 67.79 256.84 66.76 258.57 68.74 261.45 71.56 263.9 74.22 263.01 75.61 265.96 76.86 267.95 78.13 271.49 78.7 272.91 79.41 273.79 81.29 275.52 81.58 276.41 82.42 276.57 84.91 274.96 85.74 273.37 86.52 269.72 87.31 266.93 89.13 263.18 89.49 258.44 89.02 255.11 89.01 252.82 89.16 250.96 90.75 248.13 91.73 244.94 94.67 242.38 96.71 244.27 96.35 247.83 93.44 252.48 91.59 255.79 91.37 257.75 92.45 255.66 93.94 256.36 96.33 257.09 98 259.97 99.11 263.63 98.79 265.85 96.3 266.01 97.91 267.44 98.71 264.69 100.16 259.79 101.48 257.59 102.38 255.11 103.97 253.43 103.81 253.34 101.94 257.19 100.1 253.64 100.18 251.18 100.45 251.56 101.17 249.19 102.25 246.92 103.01 244.58 103.67 243.4 104.98 243.03 105.48 243 106.66 243.74 107.83 244.66 107.89 244.42 107.08 245.09 107.57 244.91 108.2 243.41 108.56 242.35 108.52 240.72 108.91 239.75 109.02 238.46 109.13 236.61 109.77 239.87 109.35 240.52 109.77 237.42 110.44 236.01 110.44 236.07 110.17 235.4 110.78 236.05 110.89 235.57 112.48 233.96 114.18 233.79 113.61 233.31 113.5 232.58 112.95 233.04 114.14 233.59 114.53 233.62 115.37 232.91 116.23 231.67 118 231.46 117.91 232.15 116.41 231.02 115.56 230.76 113.72 230.33 114.68 230.8 116.08 229.34 115.73 230.86 116.45 230.96 118.56 231.6 118.71 231.83 119.48 232.14 121.7 230.73 123.34 228.44 124 226.98 125.3 225.87 125.44 224.75 126.26 224.43 127 222 128.44 220.75 129.49 219.7 130.81 219.36 132.38 219.75 133.92 220.49 135.82 221.48 137.39 221.49 138.34 222.54 140.92 222.47 142.41 222.38 143.27 221.82 144.63 221.16 144.91 220.07 144.64 219.72 143.66 218.88 143.15 217.7 141.25 216.67 139.55 216.34 138.69 216.79 137.21 216.17 135.99 214.44 134.14 213.58 133.8 211.34 134.81 210.95 134.7 209.87 133.66 208.48 133.11 205.97 133.39 204.01 133.15 202.32 133.3 201.4 133.65 201.8 134.23 201.76 135.13 202.23 135.57 201.81 135.86 200.99 135.54 200.16 135.96 198.55 135.89 196.89 134.72 194.96 134.99 193.35 134.48 191.97 134.63 190.1 135.15 188.09 136.8 185.88 137.75 184.67 138.81 184.16 139.81 184.14 141.34 184.25 142.4 184.67 143.15 183.81 145.1 183.43 146.7 183.26 149.67 183.05 150.75 183.43 151.96 184.12 153.04 184.56 154.76 186.03 156.41 186.55 157.67 187.42 158.76 189.77 159.35 190.69 160.28 192.63 159.66 194.32 159.44 195.98 159.04 197.38 158.66 198.79 157.75 199.32 156.46 199.5 154.6 199.88 153.95 201.38 153.37 203.73 152.86 205.69 152.93 207.03 152.75 207.57 153.22 207.49 154.28 206.3 155.6 205.77 156.95 206.18 157.34 205.85 158.29 205.29 160.02 204.73 159.45 204.27 159.49 204.28 159.82 204.7 159.83 204.66 160.43 204.3 161.39 204.49 161.73 204.26 162.52 204.4 162.74 204.15 163.86 203.71 164.44 203.31 164.52 202.87 165.28 203.59 165.68 203.78 165.35 204.51 165.65 204.66 165.72 205.15 165.33 205.79 165.3 205.99 165.48 206.33 165.37 207.36 165.57 208.39 165.51 209.1 165.27 209.36 165.02 210.07 165.14 210.6 165.29 211.18 165.23 211.62 165.04 212.63 165.35 212.98 165.4 213.66 165.81 214.3 166.31 215.11 166.65 215.69 167.26 215.5 167.47 215.39 167.97 215.61 168.78 215.1 169.53 214.86 170.42 214.79 171.4 214.91 171.97 214.97 172.97 214.63 173.19 214.42 174.14 214.57 174.72 214.12 175.29 214.22 175.89 214.56 176.25 214.71 176.59 215.12 177.46 215.98 178.35 217.02 179.3"/>
<path d="M 217.02 179.3 217.82 180.09 217.77 180.56 218.66 180.66 218.87 180.48 219.48 181.02 220.57 180.86 221.51 180.3 222.86 179.86 223.61 179.19 224.84 179.32 224.75 179.54 225.99 179.62 226.98 180 227.7 180.67 228.53 181.28"/>
<path d="M 241.04 156.8 241.31 156.42 241.77 156.38 243.05 156.43 244.36 157 244.94 156.95 245.34 157.73 246.56 157.69 246.49 158.35 247.47 158.43 248.56 159.24 247.74 160.15 246.68 159.66 245.67 159.76 244.94 159.65 244.54 160.05 243.69 160.19 243.35 159.65 242.62 159.97 241.73 161.49 241.16 161.14 241.05 160.5 239.57 160.12 238.53 160.28 237.18 160.12 236.14 160.53 234.95 159.84 235.15 159.13 237.19 159.43 238.86 159.61 239.66 159.12 238.65 158.16 238.66 157.31 237.26 156.97 237.76 156.35 239.12 156.45 241.04 156.8"/>
<path d="M 432.72 115.95 434.4 115.75 433.61 117.5 433.94 118.19 433.47 119.33 431.78 118.49 430.65 118.25 427.56 117.12 427.87 115.99 430.46 116.19 432.72 115.95"/>
<path d="M 483.21 101.51 485.74 102.35 488.57 104.22"/>
<path d="M 693.42 126.32 694.65 125 695.91 125.26 696.82 124.32 698.45 124.8 698.73 125.56 697.48 126.9 696.57 126.19 695.44 126.71 694.85 128 693.4 127.37 693.42 126.32"/>
<path d="M 363.96 158.17 363.7 157.07 363.92 155.96 363.34 154.91 362.18 153.95 362.27 153.01 362.38 151.99 363.23 151.38 363.95 150.23 363.81 149.48 364.57 147.91 365.81 146.5 366.55 146.15 367.14 144.85 367.19 143.67 367.99 142.3 369.47 141.49 370.87 139.23 372.03 138.35 374.09 138.1 375.84 136.59 376.95 136 378.8 134.15 378.24 131.39 379.09 129.48 379.38 128.31 380.81 126.82 383.03 125.8 384.68 124.89 386.16 122.59 386.86 121.23 388.49 121.24 389.82 122.18 391.93 122.03 394.23 122.52 395.19 122.54 397.32 121.33 399.72 120.95 401.12 120.03 403.25 119.36 407.01 118.96 410.67 118.78 411.79 119.11 413.88 118.24 416.25 118.22 417.15 118.74 418.67 118.6 421.08 117.71 422.63 117.97 422.57 119.1 424.45 118.28 424.61 118.71 423.5 119.79 423.48 120.82 424.25 121.37 423.96 123.29 422.5 124.4 422.92 125.61 424.07 125.65 424.62 126.7 425.47 127.05 428.07 127.81 429 127.62 430.85 127.99 433.79 128.98 434.83 130.95 436.82 131.38 439.95 132.31 442.31 133.41 443.39 132.83 444.45 131.81 443.94 130.12 444.63 129.04 446.23 128 447.75 127.7 450.75 128.15 451.51 129.14 452.33 129.15 453.04 129.53 455.24 129.79 455.78 130.52 458.73 130.49 460.86 131.07 463.07 131.73 464.09 132.07 465.8 131.37 466.71 130.73 468.67 130.55 470.24 130.83 470.85 131.93 471.36 131.21 473.14 131.73 474.86 131.86 475.96 131.3 476.6 130.57 476.45 130.44 477.03 129.41 477.48 127.73 477.8 127.17 477.86 127.15 478.65 125.34 479.75 123.78 479.8 123.7 479.59 122.01 480.13 121.1 479.32 120.09 480.16 119.26 478.8 119.45 476.95 118.94 475.43 120.21 472.06 120.46 470.27 119.27 467.88 119.2 467.37 120.12 465.83 120.38 463.69 119.2 461.27 119.24 459.96 117.04 458.34 115.81 459.42 114.08 458.01 113.02 460.47 110.9 463.88 110.81 464.82 109.13 469.04 109.42 471.7 107.98 474.29 107.36 477.96 107.31 481.82 108.87 485 109.73 487.59 109.39 489.49 109.59 492.11 108.43 492.44 107.48 491.89 105.97 490.61 105.15 489.38 104.9 488.57 104.22 485.74 102.35 483.21 101.51 481.3 100.21 482.91 99.85 484.75 98 483.51 97.12 486.78 96.22 486.72 95.73 484.73 96.09 482.96 96.27 481.48 96.98 479.41 97.1 477.5 97.93 477.63 99.31 478.71 99.84 480.97 99.71 480.54 100.5 478.12 100.88 475.11 102.17 473.87 101.71 474.36 100.67 471.94 100.02 472.33 99.6 474.45 98.86 473.81 98.35 470.37 97.79 470.21 96.97 468.16 97.24 467.34 98.46 465.62 100.1 465.67 100.67 464.6 101.15 463.92 100.94 463.3 103.62 462.15 104.53 461.34 106.12 462.06 107.38 462.32 108.24 464.26 108.95 463.85 109.49 461.22 109.62 460.28 110.3 458.43 111.5 457.73 110.46 457.76 110.01 456.41 109.94 455.25 109.73 452.57 110.31 454.1 111.56 452.98 111.92 451.74 111.92 450.57 110.78 450.15 111.26 450.65 112.59 451.76 113.63 450.92 114.11 452.16 115.14 453.26 115.78 453.29 117.03 451.24 116.44 451.89 117.57 450.48 117.81 451.33 119.76 449.85 119.79 448.04 118.83 447.2 117.05 446.82 115.58 445.95 114.56 444.82 113.3 444.67 112.66 444.29 112.51 444.24 112.02 443.02 111.28 442.82 110.22 443.01 108.71 443.31 108.02 442.94 107.67 442.48 107.5 441.86 106.78 440.9 106.34 438.81 105.52 437.53 104.72 435.5 104.06 433.64 102.43 434.08 102.26 433.07 101.33 433.03 100.58 431.61 100.23 430.93 101.19 430.27 100.45 430.32 99.68 430.4 99.64 430.9 99.44 429.13 99.12 427.33 99.9 427.45 101 427.18 101.64 427.91 102.76 429.98 103.88 431.1 105.71 433.57 107.5 435.3 107.49 435.84 107.98 435.22 108.42 437.21 109.22 438.83 109.89 440.73 111.05 440.96 111.46 440.55 112.25 439.32 111.22 437.39 110.85 436.46 112.29 438.06 113.11 437.8 114.27 436.87 114.4 435.69 116.3 434.77 116.47 434.77 115.79 435.23 114.6 435.71 114.13 434.84 112.84 434.17 111.73 433.25 111.45 432.59 110.49 431.17 110.09 430.21 109.2 428.57 109.06 426.84 108.05 424.81 106.61 423.3 105.34 422.61 103.14 421.51 102.89 419.7 102.15 418.68 102.45 417.4 103.48 416.48 103.65 414.47 104.9 410.1 104.3 406.87 105.02 406.62 106.35 406.74 107.64 404.64 109.12 401.8 109.58 401.6 110.33 400.24 111.56 399.38 113.36 400.25 114.63 398.96 115.62 398.49 117.06 396.81 117.5 395.24 119.21 392.43 119.24 390.32 119.2 388.93 119.98 388.08 120.82 387 120.63 386.18 119.88 385.55 118.61 383.48 118.27 382.59 118.84 381.42 118.53 380.27 118.77 380.61 117.04 380.4 115.68 379.41 115.47 378.88 114.63 379.06 113.18 379.94 112.38 380.1 111.48 380.56 110.15 380.51 109.21 380.07 108.41 379.97 107.66 380.08 106.09 379.18 105.12 382.32 103.52 385.03 103.92 388 103.91 390.36 104.29 392.2 104.17 395.79 104.25 396.93 102.92 397.35 98.5 395.07 96.17 393.43 95.05 390.04 94.2 389.82 92.58 392.69 92.1 396.42 92.67 395.71 90.16 397.81 91.11 402.97 89.38 403.63 87.57 405.57 87.12 407.35 86.68 408.49 86.07 410.43 82.81 413.46 81.89 415.31 81.95 415.74 81.48 417.59 81.36 418 81.85 419.51 80.75 419 79.92 418.9 78.67 418 77.44 417.93 75.17 418.3 74.57 418.94 73.91 420.89 73.77 421.67 73.16 423.45 72.53 423.38 73.67 422.72 74.39 422.99 75.01 424.19 75.35 423.65 76.19 422.99 75.95 421.39 77.54 421.99 78.62 422.03 79.48 424.27 79.99 424.25 80.78 426.5 80.36 427.75 79.76 430.25 80.63 431.3 81.34 432.81 80.69 436.27 79.66 439.06 78.91 441.28 79.29 441.44 79.83 443.58 79.86 444.09 78.88 447.15 78.16 446.67 76.3 446.75 74.63 447.84 73.24 449.93 72.48 451.69 74.14 453.47 74.09 453.89 72.39 454.15 71.08 453.34 71.36 451.93 70.58 451.74 69.3 454.54 68.68 457.33 68.36 459.74 68.73 462.02 68.66 464.54 67.44 462.22 66.38 458.2 66.56 454.3 67.37 450.69 67.84 449.41 66.63 447.26 65.9 447.76 63.72 446.68 61.72 447.74 60.43 449.75 59.04 454.82 56.63 456.3 56.17 456.07 55.23 452.99 54.18 449.17 54.81 447.02 56.36 447.37 57.72 443.84 59.5 439.56 61.41 437.95 64.53 439.53 66.09 441.65 67.32 439.61 69.82 437.3 70.34 436.46 74.06 435.2 76.14 432.51 75.92 431.26 77.68 428.69 77.78 427.99 75.69 426.13 73.17 424.44 70.04 422.96 68.68 418.58 71.24 415.62 71.76 412.56 70.63 411.77 68.25 411.07 63.13 413.11 61.7 418.96 59.84 423.34 57.56 427.39 54.47 432.72 50.19 436.43 48.52 442.52 45.74 447.39 44.77 451.04 44.89 454.41 43.05 458.45 43.15 462.43 42.71 469.37 44.33 466.51 44.92 468.94 46.31 471.23 45.54 474.87 46.88 480.94 47.41 489.31 49.92 491.02 50.97 491.16 52.45 488.7 53.61 485.08 54.2 475.19 52.52 473.56 52.8 477.17 54.42 477.31 55.45 477.46 57.71 480.31 58.39 482.04 58.97 482.33 57.89 481 56.94 482.41 56.1 487.77 57.48 489.63 56.94 488.14 55.32 493.31 53.14 495.35 53.27 497.42 54.05 498.71 52.52 496.86 51.2 497.92 49.85 496.32 48.5 502.52 49.21 503.79 50.45 500.98 50.73 501 51.96 502.74 52.72 506.17 52.24 506.71 50.83 519.07 47.87 520.75 47.98 518.56 49.32 521.37 49.57 522.9 48.79 527.05 48.73 530.34 47.81 532.87 49.15 535.39 47.68 533.07 46.4 534.22 45.67 540.77 46.34 543.84 47.03 551.87 49.56 553.35 48.4 551.1 47.23 551.03 46.76 548.36 46.54 549.09 45.49 547.91 43.76 547.84 43.05 551.93 41.05 553.39 39.03 555.03 38.59 560.9 39.18 561.36 40.41 559.26 42.21 560.64 42.92 561.36 44.47 560.85 47.5 563.3 48.86 562.35 50.34 558 53.49 560.54 53.82 561.42 53.02 563.86 52.45 564.45 51.35 566.37 50.3 565.07 49.04 566.11 47.57 563.68 47.39 563.15 46.16 564.92 43.93 562.04 42.13 566.01 40.63 565.49 39.06 566.6 39 567.77 40.23 566.89 42.37 569.26 42.78 568.25 41.18 571.96 40.31 576.56 40.19 580.66 41.45 578.69 39.61 578.47 37.25 582.32 36.8 587.65 36.9 592.46 36.61 590.65 35.45 593.22 33.99 595.77 33.93 600.08 32.83 605.93 32.54 606.67 31.93 612.49 31.72 614.3 32.22 619.28 31.04 623.35 31.08 623.96 30.12 626.08 29.18 631.31 28.27 635.11 28.99 632.1 29.53 637.12 29.87 637.72 30.97 639.74 30.43 646.22 30.46 651.22 31.54 653 32.37 652.45 33.52 649.99 34.18 644.17 35.41 642.5 36.07 645.25 36.38 648.53 36.94 650.53 36.52 651.66 37.94 652.63 37.36 656.18 37.01 663.29 37.38 663.83 38.42 673.09 38.75 673.22 37.05 677.93 37.44 681.46 37.43 685.04 38.6 686.06 40.02 684.75 40.94 687.54 42.69 691.02 43.59 693.16 41.26 696.72 42.26 700.5 41.66 704.79 42.35 706.42 41.72 710.04 42.04 708.44 39.98 711.37 39.02 731.39 40.46 733.28 41.77 739.08 43.47 748.03 43.05 752.45 43.41 754.29 44.33 754.02 45.95 756.75 46.58 759.72 46.13 763.65 46.07 767.83 46.5 772.1 46.29 775.9 48.23 778.64 47.52 776.85 46.1 777.84 45.12 784.91 45.74 789.52 45.61 795.9 46.66 799 47.63"/>
<path d="M 799 56.46 796.13 57.45 793.26 57.29 795.26 58.47 796.58 60.29 797.6 60.89 797.86 61.81 797.29 62.39 793.16 61.91 786.96 63.58 784.99 63.84 781.6 65.39 778.38 66.75 777.57 67.76 774.4 66.23 768.62 67.97 767.61 67.15 765.48 68.09 762.51 67.79 761.8 69.25 759.14 71.39 759.22 72.29 761.74 72.79 761.45 76.01 759.38 76.11 758.44 77.95 759.36 78.9 755.48 80.04 754.71 82.57 751.41 83.11 750.75 85.36 747.55 87.43 746.73 85.9 745.78 82.66 744.54 77.74 745.61 74.66 747.48 73.34 747.6 72.31 751.04 71.81 755 69.02 758.82 66.74 762.8 64.97 764.58 61.85 761.89 62.03 760.56 63.86 754.94 66.29 753.12 63.57 747.4 64.32 741.85 68.04 743.68 69.4 738.73 69.97 735.31 70.2 735.47 68.6 732.02 68.26 729.27 69.35 722.5 68.97 715.21 69.63 708.02 73.95 699.53 79.18 703.02 79.46 704.11 80.85 706.27 81.34 707.68 80.24 710.12 80.38 713.32 82.82 713.39 84.7 711.66 86.92 711.47 89.57 710.47 93.11 707.13 96.32 706.39 97.85 703.38 100.43 700.39 102.99 698.96 104.3 696.01 105.6 694.61 105.63 693.22 104.55 690.24 106.17 689.9 106.91 689.05 106.78 688.09 107.53 687.43 108.28 687.51 109.88 686.37 110.37 685.97 110.76 685.14 111.41 683.66 111.78 682.7 112.37 682.63 113.33 682.37 113.58 683.25 113.94 684.51 114.91 686.42 117.52 686.97 118.96 686.99 121.52 686.15 122.73 684.15 123.16 682.37 124.08 680.38 124.27 680.13 123.06 680.54 121.4 679.56 119.09 681.21 118.72 679.69 116.82 678.61 116.4 678.34 116.82 677.69 117 677.62 116.58 677.04 116.38 676.45 116.03 677.05 115.05 677.58 114.79 677.38 114.39 677.94 113.19 677.8 112.83 676.5 112.59 675.46 111.99 672.36 112.64 670.72 113.67 668.34 114.28 669.52 113.25 669.05 112.39 670.81 110.9 669.64 109.74 667.7 110.52 665.2 112.06 663.84 113.49 661.66 113.6 660.53 114.63 661.7 116.13 663.51 116.49 663.59 117.49 665.34 118.14 667.83 116.55 669.79 117.42 671.23 117.48 671.59 118.64 668.45 119.26 667.41 120.45 665.26 121.56 664.12 123.12 666.5 124.33 667.38 126.51 668.72 128.55 670.23 130.25 670.19 131.9 668.8 132.5 669.33 133.68 670.64 134.37 670.3 136.18 669.73 137.93 668.5 138.13 666.88 140.53 665.08 143.44 663.02 146.09 659.97 148.13 656.89 150 654.39 150.25 653.04 151.24 652.27 150.52 651.02 151.62 647.92 152.73 645.57 153.07 644.96 154.91 644.82 155.41 643.59 155.54 643.01 153.93 643.53 153.07 640.56 152.36 639.51 152.73 636.55 154.62 634.7 156.72 634.22 158.25 635.91 160.59 637.99 163.49 640 164.86 641.34 166.64 642.36 170.74 642.06 174.64 640.21 176.1 637.67 177.53 635.86 179.37 633.1 181.44 632.3 180.02 632.92 178.51 631.27 177.25 629.42 176.93 628.52 175.78 627.4 173.49 625.41 172.47 623.51 172.51 623.84 170.77 621.88 170.78 621.71 173.22 620.51 176.46 619.79 178.42 619.94 180.02 621.39 180.09 622.29 182.11 622.68 184.03 623.92 185.3 625.26 185.56 626.41 186.71 626.92 186.92 628.23 188.25 629.16 189.74 629.29 191.23 629.05 192.24 629.27 193 629.43 194.31 630.21 194.92 631.08 196.88 631.04 197.63 629.47 197.78 627.37 196.14 624.75 194.38 624.49 193.25 623.21 191.77 622.9 189.93 622.1 188.72 622.35 187.11 621.86 186.17 620.98 185.32 620.6 184.22 619.42 182.97 618.35 181.92 617.99 183.22 617.57 181.99 617.81 180.61 618.46 178.48 618.25 176.84 618.93 175.14 618.18 173.83 618.36 171.41 617.46 170.26 616.74 167.61 616.34 164.81 615.38 162.97 613.92 164.09 611.4 165.67 610.16 165.47 608.79 164.95 609.55 162.2 609.09 160.13 607.35 157.57 607.62 156.77 606.32 156.49 604.75 154.68 604.12 153.52 603.99 152.39 603.57 151.33 602.64 150.04 600.6 149.95 600.8 150.86 600.11 152.1 599.16 151.65 598.84 152.05 598.21 151.81 597.35 151.61 597.04 152.42 595.53 152.39 592.8 152.85 592.92 154.52 591.74 155.83 588.55 157.32 586.07 159.93 584.4 161.33 582.19 162.78 582.19 163.8 581.09 164.35 579.09 165.14 578.05 165.26 577.39 166.95 577.85 169.83 577.97 171.67 577.03 173.78 577.02 177.54 575.87 177.65 574.86 179.34 575.54 180.07 573.52 180.7 572.77 182.21 571.88 182.84 569.78 180.77 568.75 177.67 567.9 175.43 567.13 174.38 565.95 172.26 565.4 169.48 565.02 168.1 563 165.05 562.08 160.76 561.42 157.92 561.43 155.24 561 153.16 557.77 154.49 556.21 154.22 553.31 151.54 554.38 150.73 553.72 149.86 551.12 147.98 549.5 147.42 548.84 145.83 547.13 144.14 543.04 144.56 539.44 144.6 536.32 144.91 532.15 144.24 529.73 143.73 527.23 143.44 526.29 140.73 525.22 140.33 523.52 140.73 521.29 141.8 518.58 141.07 516.34 139.36 514.2 138.73 512.72 136.63 511.09 133.67 509.9 134.03 508.49 133.3 507.66 134.16 506.34 134.05 506.81 135.03 506.61 135.54 507.32 137.21 508.19 139.12 509.28 139.63 509.66 140.41 511.17 141.34 511.31 142.25 511.08 142.99 511.37 143.74 512 144.36 512.3 145.08 512.63 145.63 512.48 144.01 513.08 142.85 513.68 142.61 514.36 143.31 514.39 144.61 513.91 145.91 514.33 146.76 514.73 146.65 514.81 147.26 516.55 146.91 518.38 146.96 519.72 147.03 521.24 145.53 522.89 144.11 524.29 142.74 524.94 141.99 525.21 142.18 525 143.1 524.71 143.5 525.01 145.25 526.01 146.76 527.24 147.57 528.87 147.86 530.18 148.26 531.18 149.53 531.78 150.27 532.57 150.55 532.57 151.05 531.76 152.37 531.41 152.99 530.48 153.7 529.65 155.22 528.64 155.1 528.18 155.63 527.83 156.75 528.1 158.23 527.89 158.51 526.87 158.5 525.48 159.33 525.27 160.41 524.76 160.87 523.38 160.86 522.52 161.42 522.53 162.31 521.45 162.93 520.23 162.72 518.75 163.46 517.72 163.59 516.12 164.19 515.69 165.17 515.64 165.93 513.43 166.86 509.89 167.9 507.91 169.46 506.93 169.58 506.26 169.45 504.97 170.37 503.56 170.8 501.7 170.91 501.14 171.04 500.65 171.62 500.07 171.79 499.73 172.35 498.63 172.3 497.92 172.6 496.39 172.49 495.81 171.19 495.87 169.98 495.51 169.33 495.08 167.69 494.44 166.78 494.88 166.67 494.66 165.66 494.93 165.23 494.83 164.26 494.54 163.32 493.87 162.65 493.7 161.76 492.56 160.97 491.37 159.11 490.75 157.3 489.22 155.78 488.23 155.42 486.76 153.3 486.5 151.76 486.6 150.45 485.33 147.99 484.29 147.13 483.09 146.67 482.36 145.4 482.48 144.9 481.87 143.75 481.22 143.25 480.35 141.6 479 139.82 477.87 138.29 476.77 138.3 477.11 137.09 477.21 136.31 477.49 135.43 477.41 135.11 476.79 136 476.31 137.67 475.71 138.82 475.19 139.21 474.45 138.5 473.45 137.51 471.87 134.33 471.64 134.53 472.56 136.87 473.92 139.1 475.6 142.55 476.42 143.76 477.13 145.01 479.12 147.46 478.68 147.85 478.75 149.29 481.33 151.28 481.72 151.73 482.43 153.91 481.95 154.31 482.27 156.59 483.08 159.24 483.93 159.78 485.14 160.6 486.43 163.17 487.04 165.2 488.26 166.28 491.28 168.38 492.51 169.64 493.71 170.92 494.41 171.68 495.5 172.35 496.02 173.04 495.95 173.96 494.69 174.49 495.64 175.09 496.36 175.5 496.79 176.42 497.79 177.35 498.89 177.35 500.98 176.79 503.4 176.52 505.35 175.83 506.45 175.69 507.24 175.28 508.5 175.21 509.21 175.16 510.23 174.83 511.41 174.61 512.46 173.85 513.3 173.85 513.35 174.46 513.14 175.75 513.15 176.91 512.68 177.71 512.06 180.11 510.99 182.59 509.62 185.42 507.72 188.66 505.83 191.15 503.22 194.17 501 195.97 497.68 198.17 495.62 199.85 493.19 202.54 492.68 203.71 492.18 204.23 490.63 205.12 490.08 206.04 489.25 206.2 488.94 207.77 488.22 208.66 487.79 210.13 486.9 210.87 485.87 213.6 486.01 214.85 487.43 215.66 487.49 216.24 486.88 217.58 487.01 218.25 486.86 219.31 487.64 220.7 488.55 222.88 489.37 223.37 489.73 224.36 489.64 226.57 489.91 228.52 490 231.98 490.39 233.07 489.72 234.65 488.86 236.19 487.45 237.56 485.43 238.41 482.93 239.48 480.42 241.86 479.57 242.27 478.02 243.84 477.11 244.35 476.92 245.94 477.97 247.61 478.41 248.91 478.44 249.58 478.83 249.47 478.77 251.64 478.41 252.67 478.93 253.05 478.6 253.97 477.67 254.76 475.85 255.51 473.18 256.71 472.21 257.53 472.4 258.46 472.96 258.61 472.77 259.78 472.22 261.39 471.96 263.23 471.38 264.23 469.87 265.35 469.44 265.67 468.5 266.8 467.88 267.94 466.62 269.53 464.12 271.81 462.55 273.14 460.88 274.15 458.56 275.01 457.43 275.13 457.15 275.74 455.8 275.42 454.7 275.84 452.3 275.41 450.96 275.68 450.04 275.57 447.75 276.44 445.86 276.79 444.49 277.63 443.48 277.68 442.55 276.89 441.8 276.85 440.84 275.86 440.74 276.17 440.44 275.57 440.45 274.27 439.73 272.79 440.45 272.38 440.39 270.68 438.94 268.61 437.83 266.73 437.82 266.73 436.23 263.85 434.58 262.17 433.72 260.55 433.23 258.39 432.68 256.79 431.94 253.37 431.89 250.72 431.6 249.51 430.74 248.6 429.6 246.77 428.43 244.11 427.95 242.72 426.15 240.55 426.01 238.85 425.8 237.46 426.11 235.51 426.87 233.48 426.99 232.53 427.71 230.53 428.24 229.62 429.51 228.17 430.22 227.19 430.45 225.54 430.34 224.29 429.68 223.49 429.08 222.15 428.54 220.82 428.66 220.36 429.34 219.48 428.67 217.34 428.21 215.86 427.1 214.45 427.31 214.02 427 213.33 426.41 211.67 424.59 209.32 422.31 207.08 420.85 205.25 419.5 202.96 419.57 202.23 420.06 201.52 420.6 199.9 421.04 198.26 420.63 197.93 421.39 195.44 421.71 193.69 420.85 192.22 419.83 191.85 419.38 190.85 418.82 190.53 418.84 189.92 416.54 190.72 415.7 190.6 414.85 191.1 413.07 191.05 411.89 189.66 411.16 188.06 409.59 186.6 407.92 186.63 405.97 186.63 404.13 186.88 402.35 187.36 398.87 188.66 397.64 189.42 395.64 190.06 393.67 189.43 392.66 189.45 391.11 189.02 389.69 189.04 387.07 189.43 385.53 190.07 383.33 190.88 382.9 190.83 382.32 190.84 380.04 189.79 378.03 188.1 376.14 186.89 374.64 185.46 374.05 185.29 372.45 184.4 371.3 183.21 370.91 182.4 370.64 180.76 369.66 179.45 368.8 178.59 368.23 178.3 367.68 177.86 367.43 176.88 367.11 176.39 366.46 176.03 365.28 175.1 364.34 174.95 363.84 174.33 363.85 173.99 363.17 173.52 363.03 173.05 362.67 171.35 362.95 170.36 362.04 168.64 360.93 167.85 361.91 167.43 362.98 165.87 363.51 164.73 363.31 163.54 363.93 162.45 364.21 160.36 363.96 158.17"/>
<path d="M 6.43 49.32 1 47.63"/>
<path d="M 1 236.12 1.46 236.01 1.18 237.08 1 237.2"/>
<path d="M 679.18 219.19 680.73 219.12 681.42 218.84 682.26 219.11 681.45 219.71 679.14 220.68 677.28 221.32 675.83 222.98 673.94 223.46 673.67 223.2 673.87 222.45 674.82 221.09 677.01 220.21 677.27 219.69 679.18 219.19"/>
<path d="M 1 388.28 1.13 388.3 3.09 387.01 7.08 387.7 9.68 386.92 10.24 386.96 13.45 387.88 16.26 386.96 16.76 386.84 23.27 386.44 25.38 386.96 26.42 387.23 29.77 387.96 36.06 388.53 41.06 389.22 49.61 389.75 55.99 389.14 65.41 389.57 70.75 390.27 76.61 389.62 82.78 389.01 83.26 387.96 74.53 387.88 67.37 387.36 65.5 386.49 59.55 386.01 59.94 385.01 60.77 384.1 61.59 383.27 61.16 382.36 57.47 381.75 55.77 380.97 52.34 380.28 57.73 380.41 62.85 380.06 66.06 380.8 70.01 380.15 73.66 379.32 75.44 378.58 74.66 377.67 71.79 377.06 68.54 376.41 63.98 376.28 59.98 375.98 55.69 375.76 54.25 374.93 51.39 374.24 49.65 373.46 48.96 370.94 50.04 371.16 52.04 371.85 55.69 371.63 59.2 371.33 61.03 372.28 64.54 372.07 67.5 371.59 70.27 370.98 72.79 370.24 76.14 370.03 76.05 369.2 75.27 368.38 75.92 367.59 78.78 367.2 80.09 367.94 83.47 367.51 86.03 366.94 89.2 366.9 92.2 366.68 95.19 366.16 97.58 365.68 100.27 365.2 102.01 365.33 103.53 365.51 106.83 365.2 109.78 365.6 112.82 365.55 115.73 365.25 118.73 365.46 122.03 365.68 125.11 365.6 128.32 365.64 131.62 365.68 134.66 365.6 136.92 364.94 139.61 364.6 142.39 365.07 145.04 364.68 147.42 363.9 148.86 364.6 149.64 365.38 151.07 366.12 153.37 365.46 156.02 366.29 159.02 366.55 161.58 367.16 164.7 367.03 167.52 366.64 170.87 366.72 173.86 367.03 176.9 367.42 178.07 366.46 176.64 365.73 175.56 364.94 172.69 364.77 171.43 363.94 170.95 363.12 170.17 361.47 171.87 361.77 174.78 361.9 177.64 361.77 180.25 362.12 182.5 362.77 183.46 363.55 186.45 363.68 189.32 363.38 192.36 362.95 195.09 362.69 197.35 363.21 200.3 363.03 202.21 361.34 203.99 362.34 206.56 362.73 209.33 362.51 211.16 363.38 214.07 363.47 216.76 363.73 219.41 364.21 221.14 363.38 222.01 362.6 224.23 363.47 227.26 363.25 229.52 363.73 231.04 364.47 233.99 364.25 236.29 363.77 238.55 363.21 241.24 362.9 244.37 362.64 247.19 362.34 249.36 361.86 250.67 361.16 251.19 360.21 250.93 359.3 250.23 358.43 249.45 357.56 248.75 356.69 248.19 355.91 248.06 355.04 248.28 354.17 249.32 353.35 250.19 352.43 250.53 351.57 250.1 350.61 249.84 349.74 250.93 348.74 252.14 348.09 253.57 347.27 255.09 346.57 256.87 345.92 257.74 344.96 258.96 344.36 260.35 343.79 262.47 343.66 263.86 342.97 265.43 342.53 267.25 342.27 268.86 341.71 270.12 341.01 271.85 340.75 273.15 341.31 272.33 342.05 270.07 342.7 269.12 343.18 267.47 342.83 265.64 343.05 264.12 343.57 262.52 344.14 261.43 344.79 261.13 345.66 261.26 346.48 262.3 347.22 260.78 347.74 258.7 347.92 257.48 348.66 256.18 349.35 254.79 350.31 254.44 351.13 255.22 352.04 256.4 352.74 258.22 353.26 259.91 353.95 260.82 354.82 261.3 355.65 261.95 356.52 263 357.26 263.65 358.08 263.95 360.12 264.6 360.95 264.78 361.82 265.47 362.69 265.17 363.86 263.95 364.77 262.65 365.51 259.7 365.81 258.7 366.59 257.35 367.33 254.01 368.16 251.06 368.51 248.28 368.98 245.28 369.46 243.5 370.37 239.94 370.46 236.03 370.37 232.52 370.55 228.78 370.55 229.48 371.42 232.86 371.81 235.34 372.41 236.73 373.2 234.25 373.89 230.43 373.67 227.26 374.24 227.13 375.15 227.05 376.02 229.65 376.76 230.13 377.58 232.95 378.41 237.64 378.76 241.63 379.36 244.8 380.06 248.84 380.75 254.36 381.1 259.78 381.71 263.56 382.36 267.68 383.1 269.85 384.14 270.94 384.97 273.63 384.19 277.28 383.53 281.14 382.84 285.74 382.27 289.7 381.67 295.21 381.62 300.64 381.93 305.11 382.45 306.54 381.49 309.62 380.84 315.22 380.8 319.61 380.32 323.78 379.84 328.38 379.54 333.28 379.15 336.71 378.58 335.15 377.8 334.2 377.02 334.2 376.19 329.9 376.28 325.34 376.63 321 376.63 320.39 375.8 320.69 374.15 321.69 373.67 324.86 373.15 328.6 372.63 331.29 371.98 333.98 371.33 335.98 370.46 339.02 370.07 342.01 369.76 343.53 369.59 346.96 369.5 350.22 369.2 352.95 368.77 355.64 368.24 358.07 367.72 361.16 367.03 363.11 366.29 365.2 365.64 365.85 364.77 363.5 364.25 364.28 363.34 365.76 362.64 368.06 362.21 370.49 361.69 372.75 360.99 374.49 360.12 375.57 359.08 377.18 358.47 379.83 358.6 380.91 359.34 383.56 359.43 383.65 358.6 384.78 357.73 387.16 357.95 387.73 358.78 390.38 358.91 393.24 358.52 396.02 358.25 398.54 358.38 399.49 359.3 401.92 358.56 404.18 358.17 406.7 357.86 409.17 357.56 411.43 357.04 413.91 356.69 415.82 356.21 417.16 355.43 418.81 356 421.11 355.69 422.72 356.73 423.98 357.52 426.5 357.08 427.5 356.21 429.75 355.6 432.66 355.74 433.53 356.56 435.35 355.74 437.74 355.47 440.35 355.39 442.69 355.43 445.17 355.69 447.55 355.82 448.6 356.56 450.03 357.21 452.46 356.82 455.07 356.73 457.58 356.73 460.06 356.69 462.27 356.39 464.62 356.13 466.57 355.52 468.65 355.13 470.91 354.91 472.6 354.3 473.82 353.09 475.08 352.35 477.38 352.69 478.25 353.48 480.16 354 482.46 353.82 484.02 354.61 485.67 355.17 487.93 354.65 488.71 353.69 490.71 353.3 493.01 352.56 495.18 352.26 497.79 351.83 499.52 351.35 501.35 350.83 503.08 350.35 505.17 350.61 507.16 349.83 508.6 349.22 510.68 349.26 512.5 348.74 512.94 347.96 514.8 347.35 516.63 346.92 518.84 346.57 520.88 346.4 522.84 346.53 524.92 346.74 526.7 347.35 526.92 348.31 528.87 349.05 530.22 349.65 532.87 349.91 534.34 350.52 536.16 351.13 538.29 351.26 540.07 350.83 541.98 349.91 544.07 350.39 546.24 350.65 548.32 350.91 550.49 351.09 552.71 351.09 554.53 353.39 554.44 353.95 554.18 354.95 552.06 355.52 550.32 356.34 550.62 357.21 553.1 357.17 552.79 358.04 551.66 358.86 550.62 359.77 552.32 360.47 554.88 360.69 557.44 360.3 558.65 359.43 559.39 358.6 560.61 357.91 562 357.26 562.56 356.47 563.73 355.39 565.12 355.17 567.64 355.08 569.86 354.82 572.11 354.48 573.2 353.61 573.85 352.78 575.37 351.96 577.54 351.39 579.41 350.96 580.62 350.22 581.88 349.83 583.49 349.48 585.7 349.7 587.7 349.48 589.87 349.22 592.3 349.35 593.91 348.74 595.04 347.27 595.86 347.87 596.9 348.92 598.77 349.35 600.9 349.52 603.02 349.26 605.28 349.44 607.37 349.48 608.76 349.26 610.62 349.39 612.32 349.87 614.31 349.57 616.7 349.57 618.74 349.26 621.04 349.57 622.52 348.83 623.65 348.09 625.17 347.48 627.95 345.83 629.38 346.14 631.07 346.74 632.55 347.53 635.37 348.87 637.54 348.92 639.58 348.92 641.97 348.66 644.36 348.35 646.18 347.74 647.7 347.09 650.17 347 651.82 346.53 653.56 346.96 654.69 347.66 656.25 348.35 658.68 348.26 660.2 348.83 662.85 349.39 665.63 349.61 667.93 349.44 669.67 348.74 671.14 348.05 673.14 347.87 675.14 348.18 677.44 348.39 679.52 348.05 681.52 348.05 683.47 348.26 685.51 348.48 687.51 348.09 689.9 347.74 692.16 347.66 694.67 347.66 696.72 347.44 698.71 347.27 699.32 346.18 699.41 345.27 700.8 345.88 701.19 346.87 701.92 347.79 702.84 348.53 704.7 348.92 707.22 348.79 710.13 348.74 712.13 348.61 715.04 348.61 717.12 348.57 720.03 348.66 722.5 348.83 724.07 349.52 723.63 350.35 725.07 351 727.45 351.52 729.93 352.09 732.79 352.48 735.79 352.83 738.05 353.17 740.56 353.22 742 352.48 743.95 353.09 745.64 353.78 747.6 354.3 750.29 354.52 752.85 354.78 753.94 355.65 756.45 356.17 758.15 356.95 760.62 357.3 763.18 357.26 765.57 357.39 768.22 357.34 770.87 357.52 773.34 357.82 775.64 358.34 777.95 358.78 779.51 359.43 779.25 360.3 778.08 361.08 777.08 362.08 776.3 362.86 775.25 363.77 772.34 364.12 771.04 364.9 768.18 365.38 767.18 366.25 765.66 367.07 764.05 367.77 763.14 368.68 762.58 369.5 762.36 370.5 762.4 371.33 763.66 372.2 764.14 373.02 765.18 373.8 769.31 374.11 770.17 375.06 766.18 375.41 762.79 375.89 758.58 375.98 756.72 377.24 756.32 378.28 755.37 379.1 754.2 379.93 757.15 380.67 758.28 381.58 760.19 382.4 762.88 383.14 765.96 383.84 769.31 384.53 774.39 385.23 775.51 386.31 781.9 386.79 782.32 386.96 783.98 387.62 790.1 387.05 795.18 387.75 799 388.28"/>
<path d="M 1 47.63 6.43 49.32 12.24 51.53 12.05 52.9 13.55 53.46 13.03 51.85 19.05 52.18 23.39 54.25 21.19 55.22 17.56 55.45 17.5 57.61 16.62 58.07 14.54 58.01 12.85 57.23 9.9 56.59 9.41 55.63 7.16 55.26 4.64 55.55 3.43 54.78 3.91 53.95 1.26 54.48 2.26 55.52 1 56.46"/>
<path d="M 1 41.97 1.28 41.88 3.16 41.89 6.37 42.52 6.18 42.82 3.9 43.35 1 43.49"/>
<path d="M 799 43.49 796.57 43.6 796.17 42.9 799 41.97"/>
<path d="M 799 237.2 797.59 237.74 796.17 238.21 795.89 237.38 797 236.93 797.7 236.81 799 236.12"/>
<path d="M 264.34 315.43 267 314.1 268.88 314.66 270.21 313.77 271.99 314.77 271.32 315.54 268.33 316.21 267.33 315.43 265.45 316.43 264.34 315.43"/>
<path d="M 552.81 308.29 554.24 308.98 556.33 309.26 556.41 309.68 555.79 310.69 552.38 310.83 552.33 309.65 552.66 308.74 552.81 308.29"/>
<path d="M 794.85 239.3 795.39 238.94 796.16 239.58 795.79 240.73 794.42 241.04 793.2 240.76 792.98 239.79 793.84 239.03 794.85 239.3"/>
<path d="M 263.28 176.65 264.55 176.36 265.02 176.44 264.93 178.09 263.08 178.33 262.68 178.13 263.32 177.52 263.28 176.65"/>
<path d="M 55.53 155.99 55.92 156.18 56.28 156.48 56.84 157.26 56.79 157.38 55.92 157.85 55.21 158.2 54.89 158.57 54.34 158.25 54.4 157.63 54.04 156.83 54.15 156.58 54.53 156.22 54.38 155.78 54.51 155.57 54.68 155.62 55.53 155.99"/>
<path d="M 54.21 154.47 54.02 154.74 53.28 154.9 52.9 154.43 52.64 154.25 52.62 154.11 52.84 153.92 53.63 154.13 54.21 154.47"/>
<path d="M 52.52 153.56 52.45 153.8 51.26 153.73 51.43 153.46 52.52 153.56"/>
<path d="M 49.71 152.36 49.9 152.5 50.54 153.24 50.42 153.36 50.26 153.34 49.49 153.26 49.2 152.75 49.12 152.67 49.71 152.36"/>
<path d="M 46.74 151.26 46.78 151.77 46.52 151.99 45.78 151.59 45.89 151.43 46.23 151.21 46.74 151.26"/>
<path d="M 226.68 144.62 227.34 144.71 228.12 146.55 228.13 147.83 227.59 147.94 227.02 146.67 226.19 146.02 226.68 144.62"/>
<path d="M 224.93 141.12 225.97 140.94 227.43 141 227.5 141.58 225.08 141.94 224.93 141.12"/>
<path d="M 227.57 140.56 229.32 141.56 228.93 143.13 228.53 142.85 228.56 141.69 227.57 140.82 227.57 140.56"/>
<path d="M 258.1 96.24 258.88 97.31 260.48 97.61 262.54 97.55 261.45 98.46 260.63 98.6 257.82 97.66 257.26 96.92 258.1 96.24"/>
<path d="M 503.48 101.62 505.68 99.33 507.83 98.96 508.84 97.65 510.91 97.18 513.48 96.21 515.36 96.75 517.58 96.64 517.97 98.01 517.57 100.18 515.64 99.84 513.75 100.2 513.67 101.83 511.51 101.61 511.59 102.34 512.81 102.9 513.81 104.89 516.38 105.64 516.8 106.42 516.26 107.34 516.38 107.88 517.07 109.32 517.3 107.69 519.08 107.13 519.72 108.39 521.33 109.73 519.39 110.43 517.3 109.89 516.8 111.76 518.28 111.89 517.71 113.41 519.44 114.16 519.11 116.47 519.53 118.04 519.31 118.56 515.85 119.15 512.7 118.77 511.16 117.65 509.06 117.19 508.36 115.56 508.3 114.46 509.11 113.94 509.49 113.16 509.88 111.44 511.7 111.26 511.02 110.67 509.99 110.56 508.86 108.99 507.7 107.82 505.28 105.21 505.49 103.72 503.48 101.62"/>
<path d="M 256.98 89.95 257.75 89.76 260.66 90.32 262.93 91.24 263 91.65 261.92 91.69 259.04 91 256.98 89.95"/>
<path d="M 221.97 62.88 222.82 62.21 223.73 62.26 224.29 62.71 223.43 63.88 222.45 63.69 221.86 63.03 221.97 62.88"/>
<path d="M 213.81 62.06 215.46 61.04 218.51 61.06 218.46 61.49 215.86 62.71 214.3 62.66 213.81 62.06"/>
<path d="M 233.27 51 231.83 51.65 229.35 51.76 228.79 50.68 229.73 49.44 231.77 49.13 233.5 49.74 233.52 50.69 233.27 51"/>
<path d="M 185.96 46.04 187.98 47.31 186.6 48.09 183.61 47.42 181.81 47.66 178.78 46.66 180.73 45.98 182.28 45.02 184.63 45.64 185.96 46.04"/>
<path d="M 163.87 38.51 166.36 39.41 167.75 41.57 168.44 43.13 172.16 44.23 176.16 45.28 175.92 46.25 172.28 46.43 173.69 47.28 172.95 48.1 168.93 47.75 165.12 47.15 162.55 47.29 158.38 48.04 152.77 48.37 148.82 48.58 147.62 47.53 144.6 46.93 142.63 47.18 139.9 45.42 141.37 45.19 144.79 44.81 147.92 44.91 150.81 44.52 146.52 44 141.79 44.18 138.64 44.14 137.47 43.32 142.62 42.43 139.2 42.46 135.33 41.88 137.19 40.22 138.73 39.34 144.66 37.99 146.93 38.41 145.82 39.45 150.76 38.78 153.84 39.9 156.34 38.77 158.37 39.5 160.18 41.67 161.3 40.75 159.72 38.48 161.67 38.16 163.87 38.51"/>
<path d="M 223.16 39.12 220.72 37.94 220.82 37.15 221.88 37 226.96 37.24 230.78 38.46 230.98 39.07 228.62 39 226.23 38.96 223.81 39.25 223.16 39.12"/>
<path d="M 710.03 37.86 712.13 36.99 714.9 36.78 718.05 37.63 718.32 38.21 714.96 38.23 710.42 37.98 710.03 37.86"/>
<path d="M 728.56 33.48 734.12 34.06 731.56 34.94 728.02 34.74 723.9 33.87 724.43 33.15 728.56 33.48"/>
<path d="M 707.74 31.73 713.6 31.83 721.61 33 719.86 34.65 711.69 34.59 708.02 35.11 703.63 33.67 704.82 32.15 707.74 31.73"/>
<path d="M 181.49 30.73 181.66 30.44 183.35 31.46 183.42 32.6 182.41 34.25 178.76 34.48 176.37 34.12 176.42 32.83 172.79 33 172.65 31.29 175.03 31.36 178.37 30.6 181.49 30.73"/>
<path d="M 627.96 24.76 633.58 26.02 632.92 26.92 620.42 27.78 624.47 24.86 626.29 24.62 627.96 24.76"/>
<path d="M 607.87 20.9 612.67 20.39 616.98 21.51 622.08 23.65 621.53 25.65 616.7 25.92 610.52 25.28 606.84 24.44 605.14 22.85 602.12 22.41 607.87 20.9"/>
<path d="M 187.16 21.83 188.7 21.16 190.97 21 190 20.49 195.16 20.38 197.99 21.56 205.35 22.46 207.11 23.92 209.78 24.64 206.73 25.3 202.64 26.96 198.72 27.12 194.12 26.84 191.74 25.94 191.78 25.13 193.53 24.54 189.47 24.56 187.03 23.82 185.63 22.82 187.16 21.83"/>
<path d="M 196.98 18.97 200.28 18.54 202.87 18.47 207.22 18.11 210.47 17.29 213.22 17.4 215.62 18.02 217.3 16.83 220.23 16.47 224.2 16.23 230.98 16.14 232.16 16.37 238.56 16 243.36 16.14 248.16 16.28 254.08 16.45 258.84 16.74 262.9 17.34 262.8 17.93 257.39 18.89 252.03 19.34 250.03 19.84 254.85 19.83 249.62 21.17 246.01 21.8 242.22 23.61 237.65 23.98 236.23 24.43 229.52 24.67 232.58 24.95 231.04 25.34 232.88 26.43 230.77 27.19 227.35 27.82 226.3 28.69 223.2 29.35 223.51 29.85 227.3 29.77 227.35 30.31 221.42 31.64 215.63 31.03 209.12 31.37 205.82 31.1 201.63 30.99 201.35 29.92 205.45 29.42 204.36 27.82 205.71 27.67 211.64 28.62 208.61 27.2 205.02 26.78 206.81 25.92 210.74 25.39 211.37 24.62 208.24 23.75 207.3 22.61 213.36 22.7 215.11 22.94 218.57 22.14 213.58 21.88 205.82 22.02 201.9 21.27 200.06 20.37 197.47 19.72 196.98 18.97"/>
<path d="M 296.34 17.34 303.78 16.02 311.56 16.12 314.39 15.3 322.22 15.09 339.93 15.36 353.79 17.12 349.7 17.98 341.22 18.07 329.29 18.29 330.4 18.69 338.25 18.44 344.93 19.21 349.23 18.53 351.07 19.32 348.64 20.61 354.28 19.79 365.05 18.93 371.69 19.36 372.94 20.3 363.9 21.88 362.65 22.39 355.56 22.77 360.7 22.88 358.1 24.5 356.32 25.93 356.39 28.4 359.05 29.85 355.59 29.94 351.94 30.64 356.03 31.82 356.56 33.7 354.19 33.9 357.06 35.81 352.13 35.97 354.7 36.87 353.98 37.65 350.85 38 347.76 38 350.54 39.51 350.57 40.49 346.18 39.57 345.04 40.17 348.03 40.72 350.94 42.08 351.78 43.86 347.83 44.29 346.12 43.43 343.38 42.16 344.14 43.67 341.56 44.83 347.4 44.93 350.46 45.05 344.52 46.98 338.49 48.72 332.01 49.49 329.56 49.5 327.27 50.35 324.19 52.69 319.42 54.25 317.89 54.34 314.94 54.88 311.75 55.4 309.85 56.77 309.82 58.33 308.7 59.78 305.08 61.55 305.98 63.29 304.98 65.12 303.84 67.28 300.72 67.42 297.45 65.61 293.02 65.6 290.87 64.38 289.39 62.22 285.55 59.46 284.42 58.02 284.12 56.02 281.05 53.98 281.85 52.35 280.37 51.56 282.56 48.97 285.9 48.15 286.77 47.22 287.24 45.49 284.7 46.28 283.5 46.61 281.51 46.92 278.79 46.2 278.64 44.69 279.5 43.51 281.56 43.48 286.09 44.07 282.27 42.66 280.29 41.9 278.08 42.22 276.23 41.67 278.71 39.6 277.36 38.78 275.6 37.24 272.93 34.89 270.11 34.03 270.14 33.1 264.19 31.81 259.48 31.64 253.56 31.73 248.15 31.9 245.58 31.19 241.72 29.8 247.54 29.1 252.01 28.98 242.52 28.41 237.52 27.5 237.83 26.64 246.22 25.57 254.34 24.51 255.2 23.7 249.22 22.91 251.15 22.02 258.82 20.48 262.05 20.24 261.12 19.24 266.37 18.66 273.19 18.31 280 18.29 282.42 18.98 288.3 17.76 293.59 18.59 296.7 18.76 301.31 19.49 296.04 18.29 296.34 17.34"/>
<path d="M 163.7 37.35 166.67 37.26 168.36 37.75 166.41 39.22 162.95 37.66 163.7 37.35"/>
</g>
<g id="ramka">
<path d="M 1 400 1 1 799 1 799 400 1 400 Z" fill="none" stroke="none"/>
</g>
</svg>